<svg width="663" height="691" viewBox="0 0 663 691" fill="none" xmlns="http://www.w3.org/2000/svg">
<g clip-path="url(#clip0)">
<path d="M511.321 128.292C511.235 155.097 509.421 181.869 505.89 208.44C505.767 209.373 505.632 210.307 505.508 211.24H254.485C253.743 210.318 253.012 209.385 252.304 208.44C249.943 205.315 247.729 202.1 245.694 198.772C235.913 182.74 231.371 163.931 235.744 150.912L235.823 150.71C236.766 147.859 238.264 145.223 240.23 142.953C250.303 131.485 270.809 133.273 289.46 142.379C272.676 124.211 259.263 101.243 258.139 80.6804C257.037 60.6238 267.448 46.2335 278.758 33.9903C279.129 33.5856 279.5 33.1921 279.871 32.7986C280.051 32.5962 280.242 32.4051 280.421 32.2027C289.247 22.8715 299.545 13.6639 314.532 14.687C330.968 15.8112 349.26 29.4709 362.121 45.4352C374.983 61.3883 383.571 79.545 392.273 97.2632C400.986 114.97 410.407 133.127 424.315 148.225C405.461 124.65 390.216 97.7916 384.494 71.619C378.771 45.4465 383.538 20.252 400.154 7.81781C405.199 4.1584 411.048 1.76057 417.21 0.824973C417.929 0.701306 418.659 0.600125 419.401 0.510184C434.837 -1.33353 453.309 3.90543 469.071 16.587C486.429 30.5502 498.526 51.3263 504.597 71.0794C510.668 90.8324 511.41 109.877 511.321 128.292Z" fill="#F2F2F2"/>
<path d="M347.55 211.24H342.75C341.221 210.295 339.684 209.362 338.141 208.44C337.185 207.844 336.218 207.271 335.251 206.686C319.275 197.052 303.202 187.814 287.032 178.974C270.877 170.126 254.642 161.69 238.329 153.667C237.897 153.481 237.543 153.15 237.33 152.732C237.116 152.313 237.056 151.832 237.16 151.373C237.177 151.313 237.204 151.256 237.239 151.205C237.464 150.777 237.97 150.598 238.712 150.957C240.713 151.947 242.725 152.936 244.726 153.948C261.084 162.11 277.375 170.684 293.598 179.671C309.809 188.653 325.931 198.037 341.963 207.822C342.3 208.024 342.638 208.238 342.975 208.44C344.503 209.373 346.021 210.307 347.55 211.24Z" fill="white"/>
<path d="M409.442 211.24H406.473C405.799 210.307 405.136 209.373 404.461 208.44C388.61 186.472 372.761 164.505 356.916 142.537C330.969 106.572 305.029 70.6071 279.096 34.6423C278.943 34.4488 278.828 34.2274 278.759 33.9903C278.534 33.1921 279.119 32.7199 279.872 32.7986C280.189 32.8421 280.494 32.9529 280.765 33.1235C281.037 33.2941 281.269 33.5206 281.446 33.7879C295.993 53.957 310.537 74.1185 325.078 94.2726C350.891 130.057 376.7 165.839 402.505 201.616C404.147 203.887 405.788 206.169 407.429 208.44C408.104 209.373 408.779 210.307 409.442 211.24Z" fill="white"/>
<path d="M475.468 193.634C475.344 198.637 475.041 203.561 474.636 208.44C474.557 209.373 474.479 210.307 474.4 211.24H471.285C471.376 210.307 471.466 209.373 471.544 208.44C472.163 201.391 472.59 194.263 472.612 186.945C472.582 166.654 470.491 146.418 466.373 126.55C461.994 105.157 455.761 84.185 447.744 63.8729C439.329 42.4497 429.212 21.7348 417.491 1.92667C417.27 1.60398 417.17 1.2138 417.209 0.824906C417.333 -0.0632519 418.513 -0.333071 419.401 0.510117C419.577 0.675545 419.728 0.864764 419.851 1.07224C421.301 3.53435 422.725 6.00395 424.123 8.48105C435.418 28.4019 445.106 49.1914 453.095 70.6521C460.705 91.0332 466.525 112.039 470.487 133.43C474.198 153.276 475.867 173.449 475.468 193.634Z" fill="white"/>
<path d="M692.223 208.44H9.80316C7.20387 208.443 4.71173 209.476 2.87379 211.314C1.03585 213.152 0.00228321 215.644 0 218.244V680.67C0.00228024 683.27 1.03585 685.762 2.87379 687.6C4.71173 689.438 7.20387 690.472 9.80316 690.474H692.223C693.641 690.474 695.041 690.166 696.328 689.573C697.615 688.979 698.758 688.112 699.677 687.034C699.755 686.949 699.827 686.859 699.891 686.764C700.476 686.048 700.95 685.249 701.296 684.392C701.79 683.213 702.042 681.948 702.038 680.67V218.244C702.035 215.643 701 213.149 699.16 211.311C697.319 209.473 694.824 208.44 692.223 208.44ZM699.239 680.671C699.24 682.038 698.837 683.376 698.081 684.515C697.409 685.519 696.497 686.338 695.428 686.899C694.437 687.411 693.338 687.677 692.223 687.675H9.80316C7.94625 687.672 6.16603 686.934 4.853 685.621C3.53997 684.308 2.80132 682.527 2.79906 680.671V218.244C2.8013 216.387 3.53996 214.607 4.853 213.294C6.16603 211.981 7.94624 211.242 9.80316 211.24H692.223C694.082 211.239 695.865 211.977 697.18 213.29C698.496 214.603 699.236 216.385 699.239 218.244V680.671Z" fill="#8C8C8C"/>
<path d="M700.633 247.732H1.39746V250.534H700.633V247.732Z" fill="#AAABB0"/>
<path d="M25.2182 237.867C29.8616 237.867 33.6258 234.103 33.6258 229.459C33.6258 224.816 29.8616 221.052 25.2182 221.052C20.5748 221.052 16.8105 224.816 16.8105 229.459C16.8105 234.103 20.5748 237.867 25.2182 237.867Z" fill="#888888"/>
<path d="M49.391 237.867C54.0345 237.867 57.7987 234.103 57.7987 229.459C57.7987 224.816 54.0345 221.052 49.391 221.052C44.7476 221.052 40.9834 224.816 40.9834 229.459C40.9834 234.103 44.7476 237.867 49.391 237.867Z" fill="#888888"/>
<path d="M73.5629 237.867C78.2063 237.867 81.9706 234.103 81.9706 229.459C81.9706 224.816 78.2063 221.052 73.5629 221.052C68.9195 221.052 65.1553 224.816 65.1553 229.459C65.1553 234.103 68.9195 237.867 73.5629 237.867Z" fill="#888888"/>
<path d="M311.392 485.984C302.983 480.51 298.801 467.789 300.861 456.156C302.921 444.522 310.681 434.502 319.982 430.181C324.507 428.141 329.467 427.258 334.418 427.61C339.368 427.962 344.154 429.538 348.344 432.197C356.874 437.413 368.938 440.269 372.988 450.705C376.101 458.724 372.153 475.008 367.963 482.797C364.342 489.529 357.461 492.609 350.997 493.947C343.845 495.406 336.463 495.311 329.351 493.67C322.239 492.029 315.562 488.88 309.772 484.435L311.392 485.984Z" fill="#2F2E41"/>
<path d="M307.006 547.773L300.283 559.364L299.395 560.893L298.102 563.142H278.281L279.619 560.893L283.082 555.058L291.154 541.432L300.294 545.086L307.006 547.773Z" fill="#FFB8B8"/>
<path d="M276.797 563.141L273.177 560.893L272.728 560.612L295.449 519.206C296.426 517.413 297.749 515.833 299.341 514.555C300.933 513.278 302.762 512.329 304.724 511.763C307.2 511.026 309.822 510.929 312.346 511.482C313.819 511.793 315.236 512.324 316.551 513.056C317.092 513.353 317.614 513.683 318.114 514.045C320.035 515.392 321.614 517.171 322.723 519.239C324.043 521.66 324.696 524.389 324.613 527.145C324.53 529.901 323.714 532.586 322.251 534.923L313.493 548.92L306.005 560.893L304.6 563.141H276.797Z" fill="#2F2E41"/>
<path d="M335.173 500.68C350.423 500.68 362.786 488.317 362.786 473.067C362.786 457.817 350.423 445.454 335.173 445.454C319.923 445.454 307.561 457.817 307.561 473.067C307.561 488.317 319.923 500.68 335.173 500.68Z" fill="#FFB8B8"/>
<path d="M362.892 563.141H300.823L301.104 562.343C300.946 561.86 300.8 561.376 300.665 560.893C300.519 560.387 300.395 559.87 300.283 559.364C299.274 554.658 299.278 549.791 300.294 545.086C303.723 528.245 317.405 514.562 317.405 514.562C317.641 514.383 317.877 514.214 318.113 514.045C320.149 512.555 322.357 511.317 324.69 510.358C334.854 506.142 345.512 507.839 352.673 510.02C355.167 510.775 357.605 511.703 359.969 512.797C360.801 513.191 361.251 513.438 361.251 513.438L361.959 535.035L362.813 560.893L362.892 563.141Z" fill="#3F64E6"/>
<path d="M391.606 560.893L386.861 536.766L382.072 512.438C381.873 511.433 381.374 510.512 380.642 509.796C379.909 509.08 378.977 508.601 377.968 508.424L367.94 506.693L358.609 505.085C357.709 504.923 356.782 505.01 355.928 505.337C355.074 505.664 354.325 506.218 353.764 506.94C353.062 507.814 352.678 508.9 352.673 510.021C352.673 510.713 352.815 511.397 353.089 512.033C357.957 523.388 358.047 541.365 356.81 560.893C356.754 561.635 356.709 562.388 356.653 563.141H392.056L391.606 560.893Z" fill="#2F2E41"/>
<path d="M324.691 510.358C324.484 509.54 324.078 508.786 323.507 508.164C322.937 507.542 322.221 507.071 321.424 506.795C320.627 506.518 319.773 506.444 318.94 506.579C318.107 506.715 317.321 507.055 316.652 507.57L312.347 511.482L294.718 527.536C294.169 528.029 293.738 528.64 293.459 529.324C291.469 534.079 287.591 543.467 283.082 555.058C282.351 556.947 281.598 558.892 280.822 560.893C280.552 561.635 280.26 562.388 279.968 563.141H309.019C309.255 562.388 309.491 561.635 309.727 560.893C311.02 556.812 312.279 552.809 313.493 548.919C317.046 537.621 320.25 527.356 322.723 519.239C323.409 516.991 324.035 514.915 324.601 513.011C324.865 512.15 324.896 511.235 324.691 510.358Z" fill="#2F2E41"/>
<path d="M398.127 563.142H400.004L399.746 562.512L399.06 560.893L388.48 535.789L386.862 536.767L373.865 544.625L380.532 560.893L381.454 563.142H392.056H398.127Z" fill="#FFB8B8"/>
<path d="M387.401 515.878C385.97 512.131 383.145 509.083 379.518 507.371C375.891 505.659 371.743 505.416 367.941 506.693C367.455 506.854 366.978 507.041 366.513 507.255C363.849 508.443 361.58 510.366 359.97 512.797C359.313 513.768 358.773 514.814 358.362 515.912C357.632 517.817 357.288 519.848 357.347 521.888C357.407 523.928 357.871 525.935 358.711 527.795L361.96 535.035L373.584 560.893L374.596 563.141H398.127L399.746 562.512L403.951 560.893L404.535 560.668L387.401 515.878Z" fill="#2F2E41"/>
<path d="M356.86 441.353C357.823 441.642 358.853 441.605 359.793 441.248C360.732 440.892 361.528 440.236 362.057 439.381C362.557 438.511 362.852 437.537 362.918 436.534C362.984 435.532 362.819 434.528 362.437 433.599C361.653 431.745 360.418 430.116 358.844 428.861C357.057 427.243 354.881 426.117 352.529 425.591C351.354 425.338 350.138 425.341 348.964 425.599C347.79 425.857 346.685 426.365 345.724 427.087C344.781 427.833 344.081 428.844 343.716 429.99C343.35 431.136 343.335 432.365 343.671 433.52C344.386 435.594 346.323 436.983 348.257 438.018C352.094 440.066 356.326 441.269 360.667 441.545L356.86 441.353Z" fill="#2F2E41"/>
<path d="M362.231 472.242C357.792 472.854 358.362 470.595 356.584 466.481C354.806 462.368 352.426 457.484 347.964 457.068C344.308 456.726 341.295 459.65 338.333 461.82C333.053 465.689 325.937 467.583 319.817 465.262C313.697 462.941 309.444 455.647 311.766 449.527C312.489 447.837 313.551 446.313 314.887 445.051C316.222 443.788 317.803 442.813 319.531 442.186C322.997 440.954 326.678 440.443 330.349 440.683C338.513 440.945 346.52 442.994 353.805 446.688C358.833 449.243 363.728 452.897 365.635 458.205C367.542 463.512 368.797 470.97 363.344 472.406L362.231 472.242Z" fill="#2F2E41"/>
<path d="M354.591 426.755C352.397 422.936 354.208 417.695 357.799 415.143C361.389 412.591 366.205 412.341 370.49 413.364C374.727 414.432 378.609 416.594 381.746 419.635C384.884 422.676 387.166 426.489 388.365 430.691C390.183 437.37 389.103 444.544 390.642 451.293C391.463 454.891 393.011 458.282 395.192 461.259C397.373 464.236 400.141 466.734 403.324 468.601C406.507 470.468 410.038 471.664 413.701 472.114C417.363 472.565 421.079 472.261 424.62 471.221C429.231 469.867 433.918 466.574 434.372 461.789C434.849 467.284 433.596 472.791 430.788 477.538C427.981 482.285 423.759 486.036 418.713 488.264C412.772 490.743 406.144 490.904 399.708 490.739C395.514 490.632 391.224 490.379 387.355 488.756C384.678 487.535 382.271 485.793 380.276 483.63C378.281 481.467 376.738 478.927 375.737 476.16C373.767 470.599 373.235 464.63 374.191 458.807C374.824 454.279 376.084 449.84 376.436 445.28C376.789 440.721 376.12 435.853 373.309 432.246C370.499 428.639 365.13 426.797 361.133 429.019C359.527 429.913 358.232 431.372 356.487 431.949C354.742 432.525 352.268 431.512 352.427 429.681L354.591 426.755Z" fill="#2F2E41"/>
<path d="M543.02 563.141L543.233 560.893L549.574 494.922C551.653 493.294 553.886 491.875 556.241 490.683C569.293 484.106 581.885 487.254 588.698 489.975C590.503 490.682 592.248 491.535 593.914 492.527L597.625 560.893L597.748 563.141H543.02Z" fill="#3F64E6"/>
<path d="M572.714 477.364C587.964 477.364 600.327 465.001 600.327 449.751C600.327 434.501 587.964 422.139 572.714 422.139C557.464 422.139 545.102 434.501 545.102 449.751C545.102 465.001 557.464 477.364 572.714 477.364Z" fill="#FFB8B8"/>
<path d="M595.118 466.588C597.171 464.425 598.533 461.7 599.033 458.76C599.532 455.82 599.146 452.799 597.923 450.079C596.701 447.359 594.696 445.065 592.166 443.487C589.635 441.91 586.693 441.121 583.713 441.22C579.894 441.348 576.297 442.911 572.652 444.057C567.13 445.936 561.238 446.467 555.468 445.605C549.664 444.704 544.427 441.611 540.835 436.964C537.418 432.269 536.353 425.756 538.766 420.475C541.553 414.377 548.061 411.018 554.184 408.288C556.653 407.052 559.29 406.185 562.011 405.716C563.375 405.49 564.77 405.547 566.11 405.885C567.45 406.223 568.705 406.833 569.798 407.679C571.519 409.159 572.527 411.383 574.4 412.666C576.507 414.109 579.245 414.071 581.787 414.326C587.513 414.899 592.928 417.202 597.313 420.928C601.698 424.654 604.845 429.626 606.334 435.184C607.824 440.742 607.587 446.622 605.653 452.042C603.72 457.461 600.183 462.164 595.511 465.524L595.118 466.588Z" fill="#2F2E41"/>
<path d="M560.355 502.106L556.241 490.683L555.984 489.971C555.862 489.634 555.665 489.328 555.408 489.078C555.151 488.828 554.84 488.64 554.499 488.527C554.158 488.415 553.796 488.382 553.441 488.43C553.085 488.478 552.745 488.607 552.447 488.806L547.775 491.92C547.775 491.92 517.814 491.92 515.408 509.897C515.374 510.178 515.329 510.493 515.296 510.83C515.294 510.845 515.29 510.861 515.284 510.875C514.981 512.055 509.326 533.911 504.469 560.893C504.335 561.635 504.199 562.388 504.064 563.141H569.17V563.141C571.288 536.037 570.103 510.836 560.355 502.106Z" fill="#2F2E41"/>
<path d="M638.019 560.893C634.467 533.214 629.385 510.83 629.385 510.83C629.34 510.493 629.295 510.178 629.261 509.897C626.866 491.92 596.905 491.92 596.905 491.92L592.236 488.807C591.938 488.608 591.597 488.48 591.242 488.432C590.886 488.383 590.524 488.417 590.183 488.529C589.842 488.642 589.531 488.83 589.274 489.081C589.016 489.331 588.819 489.637 588.698 489.975L584.325 502.106C574.577 510.836 573.392 536.036 575.51 563.14L575.511 563.141H638.3C638.21 562.388 638.109 561.635 638.019 560.893Z" fill="#2F2E41"/>
<path d="M110.655 497.867L103.977 560.893L103.741 563.141H85.6748C85.8883 562.411 86.1019 561.657 86.327 560.893C91.4536 543.31 98.4351 517.643 97.6814 510.841C96.5012 500.228 104.765 496.687 104.765 496.687L105.282 496.788L110.655 497.867Z" fill="#3F64E6"/>
<path d="M139.792 478.414C155.043 478.414 167.405 466.051 167.405 450.801C167.405 435.551 155.043 423.188 139.792 423.188C124.542 423.188 112.18 435.551 112.18 450.801C112.18 466.051 124.542 478.414 139.792 478.414Z" fill="#A0616A"/>
<path d="M175.536 549.763C174.144 552.33 173.003 555.026 172.13 557.812C171.804 558.802 171.489 559.836 171.196 560.893C170.983 561.624 170.792 562.377 170.601 563.141H97.7715C97.873 562.399 97.9625 561.646 98.0641 560.893C101.785 531.494 104.798 501.656 105.282 496.788C105.327 496.327 105.349 496.091 105.349 496.091C148.992 473.089 180.843 503.174 180.843 503.174C180.843 503.174 180.887 503.387 180.955 503.803C181.652 508.008 185.205 532.562 175.536 549.763Z" fill="#3F64E6"/>
<path d="M172.13 557.812L167.273 547.402L168.454 506.119L180.955 503.803L181.394 503.725C187.856 507.481 192.856 513.314 195.582 520.274C198.01 526.345 202.631 544.602 206.532 560.893C206.712 561.646 206.892 562.399 207.072 563.141H174.615L173.569 560.893L172.13 557.812Z" fill="#3F64E6"/>
<path d="M216.549 377.64H56.8827C53.458 377.644 50.1747 379.006 47.753 381.428C45.3314 383.85 43.969 387.133 43.9648 390.558V550.224C43.969 553.648 45.3314 556.932 47.753 559.353C50.1747 561.775 53.458 563.137 56.8827 563.141H216.549C219.974 563.139 223.258 561.777 225.68 559.355C228.102 556.933 229.464 553.649 229.466 550.224V390.558C229.464 387.132 228.102 383.848 225.68 381.426C223.258 379.004 219.974 377.642 216.549 377.64ZM227.218 550.224C227.215 553.053 226.091 555.765 224.09 557.765C222.09 559.766 219.378 560.89 216.549 560.893H56.8827C54.0544 560.889 51.3431 559.763 49.3432 557.763C47.3432 555.763 46.2177 553.052 46.2133 550.224V390.558C46.2177 387.729 47.3432 385.018 49.3432 383.018C51.3431 381.018 54.0544 379.893 56.8827 379.888H216.549C219.378 379.891 222.09 381.016 224.09 383.016C226.091 385.016 227.215 387.729 227.218 390.558V550.224ZM103.977 560.893L103.741 563.141H170.601C170.792 562.377 170.983 561.624 171.196 560.893H103.977Z" fill="#3F3D56"/>
<path d="M430.843 377.64H271.177C267.752 377.644 264.469 379.006 262.047 381.428C259.625 383.85 258.263 387.133 258.259 390.558V550.224C258.263 553.648 259.625 556.932 262.047 559.353C264.469 561.775 267.752 563.137 271.177 563.141H430.843C434.268 563.139 437.552 561.777 439.974 559.355C442.396 556.933 443.758 553.649 443.76 550.224V390.558C443.758 387.132 442.396 383.848 439.974 381.426C437.552 379.004 434.268 377.642 430.843 377.64ZM441.512 550.224C441.509 553.053 440.384 555.765 438.384 557.765C436.384 559.766 433.672 560.89 430.843 560.893H271.177C268.348 560.889 265.637 559.763 263.637 557.763C261.637 555.763 260.512 553.052 260.507 550.224V390.558C260.512 387.729 261.637 385.018 263.637 383.018C265.637 381.018 268.348 379.893 271.177 379.888H430.843C433.672 379.891 436.384 381.016 438.384 383.016C440.384 385.016 441.509 387.729 441.512 390.558V550.224ZM300.666 560.893C300.801 561.376 300.947 561.86 301.104 562.343L300.823 563.141H356.653C356.71 562.388 356.755 561.635 356.811 560.893H300.666Z" fill="#3F3D56"/>
<path d="M645.147 377.64H485.481C482.056 377.642 478.772 379.004 476.349 381.426C473.927 383.848 472.566 387.132 472.563 390.558V550.224C472.566 553.649 473.927 556.933 476.349 559.355C478.772 561.778 482.056 563.139 485.481 563.141H645.147C648.572 563.137 651.855 561.775 654.277 559.353C656.698 556.932 658.061 553.648 658.065 550.224V390.558C658.061 387.133 656.698 383.85 654.277 381.428C651.855 379.006 648.572 377.644 645.147 377.64ZM655.816 550.224C655.812 553.052 654.687 555.763 652.687 557.763C650.687 559.763 647.976 560.889 645.147 560.893H485.481C482.652 560.891 479.94 559.766 477.94 557.765C475.939 555.765 474.814 553.053 474.812 550.224V390.558C474.814 387.729 475.939 385.016 477.94 383.016C479.94 381.016 482.652 379.891 485.481 379.888H645.147C647.976 379.893 650.687 381.018 652.687 383.018C654.687 385.018 655.812 387.729 655.816 390.558V550.224ZM569.339 560.893C569.283 561.635 569.226 562.388 569.17 563.141H617.614C617.704 562.399 617.805 561.646 617.895 560.893H569.339Z" fill="#3F3D56"/>
<path d="M536.516 628.348H165.514C163.128 628.348 160.841 627.4 159.154 625.714C157.467 624.027 156.52 621.739 156.52 619.354C156.52 616.969 157.467 614.681 159.154 612.994C160.841 611.307 163.128 610.36 165.514 610.36H536.516C538.902 610.36 541.189 611.307 542.876 612.994C544.563 614.681 545.51 616.969 545.51 619.354C545.51 621.739 544.563 624.027 542.876 625.714C541.189 627.4 538.902 628.348 536.516 628.348Z" fill="#CCCCCC"/>
<path d="M432.523 330.421H269.507C267.121 330.421 264.834 329.474 263.147 327.787C261.46 326.1 260.513 323.813 260.513 321.427C260.513 319.042 261.46 316.754 263.147 315.068C264.834 313.381 267.121 312.433 269.507 312.433H432.523C434.908 312.433 437.196 313.381 438.883 315.068C440.569 316.754 441.517 319.042 441.517 321.427C441.517 323.813 440.569 326.1 438.883 327.787C437.196 329.474 434.908 330.421 432.523 330.421Z" fill="#3F64E6"/>
<path d="M153 474.858C153.935 475.781 155.172 476.334 156.482 476.418C157.793 476.502 159.09 476.111 160.135 475.315C166.643 470.491 172.356 464.487 175.737 457.162C179.611 448.77 180.043 438.471 175.372 430.495C171.423 423.752 164.451 419.401 157.501 415.828C154.803 414.305 151.896 413.185 148.874 412.503C145.819 411.829 142.622 412.345 139.934 413.945C138.619 414.77 137.584 415.971 136.962 417.393C136.34 418.815 136.161 420.392 136.449 421.917C133.111 418.109 128.835 415.238 124.046 413.591C121.03 412.412 117.728 412.172 114.574 412.905C110.164 414.156 106.944 418.074 105.183 422.306C103.759 425.525 103.268 429.08 103.764 432.565C104.025 434.299 104.648 435.959 105.591 437.437C106.534 438.916 107.777 440.18 109.24 441.148C112.886 443.404 117.538 443.241 121.725 442.319C125.912 441.398 129.965 439.795 134.234 439.389C138.502 438.984 143.255 440.048 145.853 443.459C147.682 445.861 148.152 449 148.563 451.992L150.698 467.55C150.873 469.801 151.448 472.002 152.396 474.051C152.56 474.346 152.763 474.618 153 474.858Z" fill="#2F2E41"/>
</g>
<defs>
<clipPath id="clip0">
<rect width="702.038" height="690.474" fill="white"/>
</clipPath>
</defs>
</svg>
