<svg width="810" height="567" viewBox="0 0 810 567" fill="none" xmlns="http://www.w3.org/2000/svg">
<path opacity="0.15" d="M344.489 21.7797C311.574 9.26175 276.791 -1.19474 241.284 0.119786C189.076 2.04677 138.959 31.422 114.416 74.5551C93.5931 111.101 91.0238 153.935 82.0536 194.491C71.0145 244.451 49.8327 291.946 27.2168 338.38C15.0723 363.326 2.25562 388.81 0.261415 416.154C-2.50209 454.118 16.8947 491.948 47.3156 517.201C77.7365 542.453 118.136 555.778 158.685 558.683C180.262 560.229 202.811 558.795 221.976 549.399C242.255 539.458 257.035 521.495 277.396 511.696C296.262 502.614 318.333 501.344 339.515 502.524C367.171 504.065 394.472 509.496 420.612 518.657C450.219 529.054 477.75 544.119 507.252 554.665C536.754 565.211 569.797 571.096 599.986 562.298C628.368 554.03 650.775 533.953 670.978 513.623C704.014 480.44 734.293 444.623 761.516 406.526C779.748 380.975 796.717 354.02 804.776 324.241C820.192 267.306 798.981 203.073 751.934 164.19C712.953 131.976 660.641 117.994 609.434 109.51C562.738 101.772 508.746 101.294 465.762 81.1277C424.773 61.8728 387.473 38.1366 344.489 21.7797Z" fill="#3F64E6"/>
<path d="M472.469 462.326V489.461H480.184L478.691 460.332L472.469 462.326Z" fill="#AAABB0"/>
<path d="M356.574 456.851V483.986H364.297L362.803 454.857L356.574 456.851Z" fill="#AAABB0"/>
<path d="M491.388 417.02C491.388 414.268 489.159 412.038 486.41 412.038C483.66 412.038 481.432 414.268 481.432 417.02V455.358C481.432 458.109 483.66 460.34 486.41 460.34C489.159 460.34 491.388 458.109 491.388 455.358V417.02Z" fill="#AAABB0"/>
<path d="M363.669 406.309C363.669 403.558 361.441 401.328 358.691 401.328C355.942 401.328 353.713 403.558 353.713 406.309V455.35C353.713 458.102 355.942 460.332 358.691 460.332C361.441 460.332 363.669 458.102 363.669 455.35V406.309Z" fill="#AAABB0"/>
<path d="M504.093 122.991C504.093 122.991 514.049 118.756 515.542 122.991C517.036 127.226 517.783 163.823 517.783 163.823H508.32L504.093 122.991Z" fill="#AAABB0"/>
<path d="M395.046 122.991C395.046 122.991 385.083 118.756 383.589 122.991C382.095 127.226 381.348 163.823 381.348 163.823H390.811L395.046 122.991Z" fill="#AAABB0"/>
<path d="M396.532 86.6395L395.039 117.016H401.761V85.8926L396.532 86.6395Z" fill="#AAABB0"/>
<path d="M390.811 163.823L392.806 120.003C392.806 120.003 392.059 110.294 415.705 113.281C439.352 116.269 508.574 122.244 508.574 122.244V163.823H390.811Z" fill="#33323D"/>
<path d="M485.42 394.613L481.686 461.579C481.686 461.579 426.909 491.955 360.435 463.073L366.41 392.619L485.42 394.613Z" fill="#33323D"/>
<path d="M433.384 130.953L434.624 174.272H511.808L507.326 117.016L433.384 130.953Z" fill="#444053"/>
<path d="M441.227 365.977H368.524V458.091H441.227V365.977Z" fill="#4C4981"/>
<path d="M414.465 403.576C414.465 403.576 424.922 395.36 426.662 397.847C428.402 400.334 420.448 411.045 417.207 409.797C413.965 408.55 414.465 403.576 414.465 403.576Z" fill="#FFB9B9"/>
<path d="M704.678 161.329H227.436V400.334H704.678V161.329Z" fill="#504F60"/>
<path d="M522.264 73.4494C522.264 73.4494 526.245 88.3872 525.006 90.8744C523.766 93.3615 523.99 100.337 523.99 100.337C523.99 100.337 524.259 104.819 522.264 105.312C520.27 105.805 518.53 106.059 520.143 107.552C521.757 109.046 520.143 111.287 520.143 111.287C520.143 111.287 519.269 114.775 520.143 117.016C521.017 119.256 515.034 120.19 515.542 122.991C516.05 125.792 517.723 133.694 515.542 133.948C513.361 134.202 516.289 143.904 514.325 143.904C512.361 143.904 510.964 161.329 510.964 161.329C510.964 161.329 497.146 149.632 487.937 152.866C487.937 152.866 488.684 143.157 491.672 139.669C494.659 136.181 493.756 127.226 493.756 127.226L508.574 82.6586L522.264 73.4494Z" fill="#4C4981"/>
<path d="M448.322 279.427C445.088 283.005 441.6 263.899 441.6 263.899C441.6 263.899 432.391 276.597 426.416 268.134C422.278 262.271 425.542 245.66 427.91 236.018C428.97 231.731 429.866 228.818 429.866 228.818L443.31 226.577C443.31 226.577 443.355 229.505 443.654 233.06C444.057 237.863 444.931 243.823 446.791 245.25C450.07 247.722 451.564 275.82 448.322 279.427Z" fill="#AE6E79"/>
<path opacity="0.1" d="M441.354 55.7704C441.354 55.7704 417.946 55.524 412.225 67.9672C406.504 80.4104 406.25 84.6528 404.009 86.6395C401.768 88.6262 428.402 99.0902 428.402 99.0902L429.65 141.91C429.65 141.91 434.878 136.614 443.34 139.012C451.803 141.409 462.513 139.012 462.513 139.012C462.513 139.012 462.013 138.108 468.989 139.012C475.965 139.915 498.117 128.219 498.117 128.219C498.117 128.219 498.483 109.487 497.99 105.499C497.497 101.51 513.795 72.2021 513.795 72.2021C513.795 72.2021 526.492 60.0053 513.302 55.7704C513.302 55.7704 508.634 48.7347 496.624 48.8019C484.614 48.8692 441.354 55.7704 441.354 55.7704Z" fill="black"/>
<path d="M441.354 55.0235C441.354 55.0235 417.946 54.7771 412.225 67.2203C406.504 79.6635 406.25 83.9059 404.009 85.8926C401.768 87.8793 428.402 98.3433 428.402 98.3433L429.65 141.163C429.65 141.163 434.878 135.867 443.34 138.265C451.803 140.662 462.513 138.265 462.513 138.265C462.513 138.265 462.013 137.361 468.989 138.265C475.965 139.168 498.117 127.472 498.117 127.472C498.117 127.472 506.826 113.281 506.333 109.3C505.84 105.319 523.758 75.1896 523.758 75.1896C523.758 75.1896 526.499 59.2584 513.302 55.0235C513.302 55.0235 508.634 47.9878 496.624 48.055C484.614 48.1223 441.354 55.0235 441.354 55.0235Z" fill="#4C4981"/>
<path opacity="0.1" d="M443.714 233.038C438.583 231.439 430.531 234.965 427.969 236.025C429.03 231.738 429.926 228.825 429.926 228.825L443.37 226.585C443.37 226.585 443.393 229.512 443.714 233.038Z" fill="black"/>
<path d="M411.224 85.8926H404.009C404.009 85.8926 402.515 101.084 404.009 105.566C405.503 110.047 406.25 109.397 405.749 112.713C405.249 116.03 409.237 121.109 409.237 121.109C409.237 121.109 409.73 133.626 412.225 138.287C414.719 142.948 409.484 163.846 409.484 163.846C410.912 167.453 413.024 170.75 415.705 173.555C419.94 177.783 422.181 193.467 420.933 199.443C419.686 205.418 424.421 207.658 424.421 207.658C424.421 207.658 426.416 235.547 427.163 235.547C427.909 235.547 442.347 228.078 446.828 234.547L443.34 208.906L443.594 159.364C443.594 159.364 438.859 153.135 441.354 147.661C443.848 142.186 439.359 129.235 439.359 129.235L432.884 100.36L411.224 85.8926Z" fill="#4C4981"/>
<path d="M366.41 479.505C366.41 479.505 355.954 477.264 355.707 479.505C355.461 481.745 343.257 504.653 358.449 511.375C373.64 518.097 414.212 532.534 480.192 513.862C480.192 513.862 484.419 515.356 483.426 506.146C482.433 496.937 482.433 486.727 482.433 486.727C482.433 486.727 472.469 483.986 465 484.987C457.531 485.988 392.552 499.178 366.41 479.505Z" fill="#33323D"/>
<path opacity="0.1" d="M366.41 479.505C366.41 479.505 355.954 477.264 355.707 479.505C355.461 481.745 343.257 504.653 358.449 511.375C373.64 518.097 414.212 532.534 480.192 513.862C480.192 513.862 484.419 515.356 483.426 506.146C482.433 496.937 482.433 486.727 482.433 486.727C482.433 486.727 472.469 483.986 465 484.987C457.531 485.988 392.552 499.178 366.41 479.505Z" fill="black"/>
<path d="M366.41 476.517C366.41 476.517 355.954 474.277 355.707 476.517C355.461 478.758 343.257 501.665 358.449 508.387C373.64 515.109 414.212 529.547 480.192 510.874C480.192 510.874 484.419 512.368 483.426 503.159C482.433 493.95 482.433 483.74 482.433 483.74C482.433 483.74 472.469 480.999 465 481.999C457.531 483 392.552 496.19 366.41 476.517Z" fill="#33323D"/>
<path d="M340.523 426.976L343.13 421.299C343.13 421.299 357.201 408.191 360.435 407.273C363.669 406.354 376.867 402.351 378.861 402.351C380.855 402.351 417.206 400.357 417.206 400.357L421.434 410.32L375.814 420.336L360.435 431.539L340.523 426.976Z" fill="#767D9F"/>
<path d="M450.13 274.109L447.747 292.446L446.828 299.504L436.125 300.998C436.125 300.998 434.968 298.518 433.332 294.709C428.365 283.147 419.014 259.306 424.436 255.191C431.644 249.708 433.399 267.888 433.399 267.888L441.615 263.899L450.13 274.109Z" fill="#FFB9B9"/>
<path d="M448.344 308.22H394.292V389.878H448.344V308.22Z" fill="white"/>
<path opacity="0.1" d="M448.344 308.22H394.292V389.878H448.344V308.22Z" fill="black"/>
<path d="M472.638 312.641L419.167 304.736L407.224 385.515L460.695 393.421L472.638 312.641Z" fill="white"/>
<path d="M451.723 316.509L424.201 312.44L418.054 354.016L445.576 358.085L451.723 316.509Z" fill="#6C63FF"/>
<path d="M448.448 370.777L415.103 365.847L413.768 374.876L447.113 379.806L448.448 370.777Z" fill="#6C63FF"/>
<path opacity="0.1" d="M462.513 102.197C479.768 102.197 493.756 88.2095 493.756 70.9548C493.756 53.7 479.768 39.7122 462.513 39.7122C445.258 39.7122 431.271 53.7 431.271 70.9548C431.271 88.2095 445.258 102.197 462.513 102.197Z" fill="black"/>
<path d="M462.513 101.45C479.768 101.45 493.756 87.4626 493.756 70.2078C493.756 52.9531 479.768 38.9653 462.513 38.9653C445.258 38.9653 431.271 52.9531 431.271 70.2078C431.271 87.4626 445.258 101.45 462.513 101.45Z" fill="#AE6E79"/>
<path d="M465.06 109.233C465.472 109.233 465.807 108.397 465.807 107.366C465.807 106.335 465.472 105.499 465.06 105.499C464.647 105.499 464.313 106.335 464.313 107.366C464.313 108.397 464.647 109.233 465.06 109.233Z" fill="#444053"/>
<path d="M465.06 117.016C465.472 117.016 465.807 116.18 465.807 115.148C465.807 114.117 465.472 113.281 465.06 113.281C464.647 113.281 464.313 114.117 464.313 115.148C464.313 116.18 464.647 117.016 465.06 117.016Z" fill="#444053"/>
<path d="M448.494 279.375C449.293 278.456 449.823 276.096 450.13 272.982L441.227 261.883C441.227 261.883 444.998 283.401 448.494 279.375Z" fill="#AE6E79"/>
<path opacity="0.1" d="M458.532 462.827C458.532 462.827 443.923 485.413 398.28 482.993C355.282 480.752 334.294 459.593 335.295 452.124C336.296 444.655 332.554 426.475 341.763 421.247C347.103 418.222 354.131 420.015 359.091 422.061C360.804 422.757 362.68 422.953 364.5 422.627C366.32 422.3 368.011 421.465 369.375 420.216C373.909 416.131 382.364 411.53 395.711 415.153C397.428 415.611 399.24 415.577 400.939 415.055C406.496 413.36 419.723 410.417 429.321 416.953C430.838 417.998 432.621 418.59 434.462 418.661C436.303 418.731 438.126 418.276 439.718 417.348L439.852 417.266C444.334 414.525 465.247 440.42 465.247 440.42C465.247 440.42 466.247 460.34 458.532 462.827Z" fill="black"/>
<path d="M458.532 463.574C458.532 463.574 443.923 486.16 398.28 483.74C355.282 481.499 334.294 460.34 335.295 452.871C336.296 445.402 332.554 427.222 341.763 421.994C347.103 418.969 354.131 420.762 359.091 422.808C360.804 423.504 362.68 423.7 364.5 423.374C366.32 423.047 368.011 422.211 369.375 420.963C373.909 416.878 382.364 412.277 395.711 415.899C397.428 416.358 399.24 416.324 400.939 415.802C406.496 414.107 419.723 411.164 429.321 417.699C430.838 418.745 432.621 419.337 434.462 419.407C436.303 419.478 438.126 419.022 439.718 418.095L439.852 418.013C444.334 415.272 465.247 441.167 465.247 441.167C465.247 441.167 466.247 461.086 458.532 463.574Z" fill="#767D9F"/>
<path opacity="0.1" d="M398.28 472.417C414.714 472.417 428.036 459.094 428.036 442.661C428.036 426.227 414.714 412.904 398.28 412.904C381.846 412.904 368.524 426.227 368.524 442.661C368.524 459.094 381.846 472.417 398.28 472.417Z" fill="black"/>
<path d="M398.28 473.164C414.714 473.164 428.036 459.841 428.036 443.407C428.036 426.974 414.714 413.651 398.28 413.651C381.846 413.651 368.524 426.974 368.524 443.407C368.524 459.841 381.846 473.164 398.28 473.164Z" fill="#FFB9B9"/>
<path d="M389.751 417.684C386.629 418.528 383.552 420.142 382.028 422.793C381.109 424.392 380.788 426.311 379.459 427.641C377.576 429.53 374.402 429.568 371.855 430.628C369.308 431.689 367.628 435.423 370.122 436.603C367.523 436.738 365.596 439.135 365.275 441.518C364.954 443.9 365.858 446.276 366.732 448.546C369.585 455.895 372.654 463.566 378.943 468.794C389.191 477.324 404.636 476.928 418.401 476.024C419.526 476.061 420.641 475.804 421.636 475.277C423.129 474.291 423.316 472.402 423.563 470.744C424.601 463.663 428.44 457.232 430.949 450.473C433.459 443.714 434.49 435.774 430.262 429.792C424.041 420.919 400.222 414.846 389.751 417.684Z" fill="#B96B6B"/>
<path opacity="0.1" d="M447.747 292.446L446.828 299.504L436.125 300.998C436.125 300.998 434.968 298.518 433.332 294.709L447.575 292.035L447.747 292.446Z" fill="black"/>
<path d="M459.025 448.389L465.254 441.167L464.007 401.335C464.62 398.461 465.037 395.549 465.254 392.619C465.501 388.384 462.14 378.928 462.14 378.928C462.661 377.035 463.369 375.199 464.253 373.446C465.747 370.459 462.147 363.737 462.147 363.737C462.147 363.737 456.784 346.312 459.025 337.595C461.266 328.879 458.48 323.905 458.48 323.905C458.48 323.905 456.291 314.195 456.538 310.214C456.784 306.233 451.556 302.491 451.556 302.491L447.575 292.782L431.644 295.769V329.379C431.644 329.379 432.637 361.496 431.644 367.725C430.651 373.954 433.631 379.922 433.631 379.922C433.631 379.922 431.89 389.131 433.384 392.619C434.878 396.107 437.866 404.569 437.866 404.569C437.311 407.593 437.483 410.706 438.366 413.651C439.86 418.013 438.366 420.5 438.366 420.5L459.025 448.389Z" fill="#767D9F"/>
<g opacity="0.1">
<path opacity="0.1" d="M431.547 114.588C430.667 114.125 429.744 113.75 428.791 113.468C427.17 112.731 425.883 111.415 425.183 109.778C425.744 112.355 427.163 114.7 429.538 115.709C430.491 115.99 431.414 116.366 432.294 116.829C432.856 117.226 433.311 117.758 433.616 118.375C433.317 116.911 432.772 115.417 431.547 114.588Z" fill="black"/>
<path opacity="0.1" d="M444.304 132.76C440.861 133.634 436.364 134.09 434.475 131.169C434.534 131.873 434.737 132.557 435.072 133.178C436.685 136.054 440.629 135.957 443.983 135.247L444.304 132.76Z" fill="black"/>
<path opacity="0.1" d="M458.256 134.807C458.734 137.839 456.762 140.864 454.148 142.455C451.534 144.046 448.344 144.486 445.267 144.695C444.778 144.759 444.281 144.702 443.818 144.531C443.678 144.847 443.633 145.197 443.688 145.538C443.744 145.879 443.897 146.196 444.13 146.451C444.363 146.707 444.665 146.888 445 146.974C445.335 147.06 445.687 147.047 446.014 146.936C449.091 146.742 452.258 146.316 454.895 144.695C457.531 143.075 459.503 140.057 458.995 137.017C458.852 136.25 458.603 135.506 458.256 134.807Z" fill="black"/>
<path opacity="0.1" d="M461.572 107.769C462.028 109.585 462.063 111.481 461.675 113.313C461.286 115.144 460.485 116.863 459.331 118.338C457.569 120.474 454.887 122.184 454.506 124.925C454.379 126.185 454.64 127.454 455.253 128.563C455.186 128.099 455.186 127.629 455.253 127.166C455.634 124.425 458.315 122.684 460.078 120.578C462.976 117.075 463.379 111.914 461.572 107.769Z" fill="black"/>
</g>
<g opacity="0.1">
<path opacity="0.1" d="M371.863 431.778C374.402 430.725 377.576 430.688 379.466 428.791C380.795 427.461 381.117 425.542 382.035 423.951C383.529 421.292 386.629 419.686 389.751 418.842C400.207 416.004 424.048 422.069 430.262 430.86C432.083 433.519 433.076 436.659 433.115 439.882C433.355 436.161 432.354 432.465 430.27 429.373C424.055 420.582 400.237 414.518 389.758 417.356C386.636 418.2 383.559 419.806 382.043 422.465C381.124 424.055 380.803 425.975 379.473 427.304C377.584 429.194 374.41 429.231 371.87 430.292C369.936 431.091 368.502 433.451 369.024 435.035C369.233 434.319 369.595 433.656 370.085 433.094C370.575 432.531 371.182 432.083 371.863 431.778Z" fill="black"/>
<path opacity="0.1" d="M365.29 442.631C365.604 440.241 367.531 437.851 370.137 437.716C369.864 437.602 369.619 437.428 369.421 437.207C369.223 436.986 369.078 436.724 368.995 436.439C368.003 436.807 367.131 437.44 366.473 438.268C365.815 439.096 365.395 440.088 365.26 441.137C365.189 441.745 365.189 442.359 365.26 442.967C365.29 442.855 365.29 442.743 365.29 442.631Z" fill="black"/>
</g>
<path d="M523.504 171.964H455.537V260.598H523.504V171.964Z" fill="white"/>
<path opacity="0.1" d="M523.504 171.964H455.537V260.598H523.504V171.964Z" fill="black"/>
<path d="M549.473 177.164L482.489 188.686L497.514 276.037L564.498 264.515L549.473 177.164Z" fill="white"/>
<path d="M514.461 245.526L498.723 248.233L502.253 268.755L517.991 266.048L514.461 245.526Z" fill="#6C63FF"/>
<path d="M536.238 241.776L520.5 244.483L524.03 265.005L539.768 262.298L536.238 241.776Z" fill="#6C63FF"/>
<path d="M551.627 211.71L496.437 221.187L499.976 241.802L555.167 232.325L551.627 211.71Z" fill="#6C63FF"/>
<path d="M547.027 187.106L491.836 196.583L492.626 201.182L547.816 191.705L547.027 187.106Z" fill="#6C63FF"/>
<path d="M548.837 195.566L493.646 205.043L494.436 209.642L549.627 200.165L548.837 195.566Z" fill="#6C63FF"/>
<path d="M493.755 147.885C493.755 147.885 462.513 179.254 478.198 187.223C493.882 195.193 504.092 160.709 504.092 160.709L506.572 152.866L493.755 147.885Z" fill="#AE6E79"/>
<path opacity="0.1" d="M491.022 145.114L487.16 153.643C487.16 153.643 506.206 156.317 510.187 162.076L507.827 147.026L505.026 140.602L491.022 145.114Z" fill="black"/>
<path d="M491.769 144.367L487.907 152.896C487.907 152.896 506.953 155.57 510.934 161.329L508.574 146.279L505.773 139.856L491.769 144.367Z" fill="#4C4981"/>
<path d="M607.059 301.192L606.648 301.476L607.216 301.73L607.828 301.677L607.903 301.252L607.059 301.192Z" fill="#464A5F"/>
<path opacity="0.1" d="M607.059 301.192L606.648 301.476L607.216 301.73L607.828 301.677L607.903 301.252L607.059 301.192Z" fill="black"/>
<path d="M607.059 301.192L606.641 301.461L606.312 301.057L606.514 300.729L606.7 300.669L607.059 301.192Z" fill="#9C9CA1"/>
<path opacity="0.1" d="M607.059 301.192L606.641 301.461L606.312 301.057L606.514 300.729L606.7 300.669L607.059 301.192Z" fill="black"/>
<path d="M680.576 249.574L649.998 205.41C649.727 205.016 649.381 204.679 648.98 204.419C648.579 204.159 648.13 203.98 647.66 203.893C647.189 203.806 646.706 203.813 646.239 203.913C645.771 204.014 645.328 204.205 644.934 204.477L576.773 251.262C575.975 251.809 575.427 252.651 575.25 253.602C575.072 254.552 575.278 255.535 575.824 256.333L606.32 301.057L680.576 249.574Z" fill="#9C9CA1"/>
<path opacity="0.1" d="M680.576 249.574L649.998 205.41C649.727 205.016 649.381 204.679 648.98 204.419C648.579 204.159 648.13 203.98 647.66 203.893C647.189 203.806 646.706 203.813 646.239 203.913C645.771 204.014 645.328 204.205 644.934 204.477L576.773 251.262C575.975 251.809 575.427 252.651 575.25 253.602C575.072 254.552 575.278 255.535 575.824 256.333L606.32 301.057L680.576 249.574Z" fill="black"/>
<path d="M681.323 249.679L650.745 205.515C650.473 205.12 650.127 204.783 649.725 204.523C649.323 204.263 648.874 204.084 648.403 203.997C647.932 203.91 647.448 203.917 646.98 204.018C646.512 204.118 646.068 204.309 645.673 204.581L577.52 251.396C576.723 251.944 576.175 252.785 575.995 253.735C575.816 254.685 576.021 255.668 576.564 256.468L607.059 301.214L681.323 249.679Z" fill="#9C9CA1"/>
<path d="M706.881 258.41L681.487 250.254L607.216 301.737L633.014 310.177C633.591 310.364 634.204 310.415 634.804 310.324C635.405 310.233 635.975 310.004 636.472 309.654L707.09 259.792C707.223 259.717 707.329 259.604 707.396 259.468C707.462 259.332 707.486 259.178 707.463 259.028C707.441 258.878 707.373 258.739 707.269 258.628C707.165 258.518 707.03 258.442 706.881 258.41Z" fill="#464A5F"/>
<path opacity="0.1" d="M706.881 258.41L681.487 250.254L607.216 301.737L633.014 310.177C633.591 310.364 634.204 310.415 634.804 310.324C635.405 310.233 635.975 310.004 636.472 309.654L707.09 259.792C707.223 259.717 707.329 259.604 707.396 259.468C707.462 259.332 707.486 259.178 707.463 259.028C707.441 258.878 707.373 258.739 707.269 258.628C707.165 258.518 707.03 258.442 706.881 258.41Z" fill="black"/>
<path d="M706.724 257.894L681.33 249.731L607.059 301.214L632.857 309.639C633.433 309.83 634.047 309.883 634.647 309.793C635.248 309.704 635.819 309.475 636.315 309.124L706.933 259.261C707.061 259.185 707.162 259.073 707.225 258.938C707.289 258.804 707.31 258.654 707.288 258.508C707.265 258.361 707.2 258.224 707.1 258.115C706.999 258.006 706.869 257.929 706.724 257.894Z" fill="#464A5F"/>
<g opacity="0.1">
<path opacity="0.1" d="M669.328 247.707L667.453 245.018C667.34 244.862 667.172 244.756 666.982 244.721C666.793 244.686 666.598 244.726 666.437 244.831L663.651 246.691C663.495 246.801 663.387 246.967 663.349 247.155C663.312 247.343 663.348 247.537 663.449 247.699L665.175 250.351C665.283 250.51 665.448 250.621 665.636 250.661C665.823 250.701 666.019 250.668 666.183 250.567L669.118 248.723C669.278 248.613 669.389 248.446 669.428 248.257C669.467 248.067 669.431 247.87 669.328 247.707Z" fill="black"/>
<path opacity="0.1" d="M664.323 251.172L662.441 248.491C662.328 248.335 662.16 248.229 661.971 248.194C661.781 248.159 661.586 248.199 661.425 248.304L658.647 250.179C658.489 250.288 658.38 250.454 658.341 250.641C658.302 250.829 658.337 251.025 658.438 251.187L660.163 253.839C660.27 253.999 660.434 254.111 660.622 254.153C660.81 254.195 661.007 254.163 661.171 254.063L664.114 252.218C664.197 252.164 664.269 252.093 664.324 252.011C664.38 251.929 664.419 251.836 664.438 251.739C664.458 251.642 664.458 251.541 664.438 251.444C664.418 251.347 664.379 251.254 664.323 251.172Z" fill="black"/>
<path opacity="0.1" d="M659.065 254.81L657.183 252.128C657.07 251.972 656.902 251.866 656.713 251.831C656.523 251.796 656.328 251.836 656.167 251.942L653.381 253.816C653.223 253.927 653.113 254.094 653.076 254.284C653.038 254.473 653.075 254.67 653.18 254.832L654.905 257.484C655.013 257.642 655.178 257.754 655.366 257.794C655.554 257.834 655.75 257.801 655.913 257.7L658.849 255.855C658.932 255.802 659.005 255.732 659.061 255.65C659.117 255.568 659.157 255.476 659.177 255.378C659.197 255.281 659.198 255.18 659.178 255.083C659.159 254.985 659.121 254.892 659.065 254.81Z" fill="black"/>
<path opacity="0.1" d="M653.74 258.499L651.858 255.811C651.745 255.657 651.578 255.552 651.391 255.517C651.203 255.482 651.01 255.52 650.849 255.624L648.063 257.506C647.907 257.616 647.799 257.782 647.762 257.97C647.724 258.158 647.76 258.352 647.862 258.514L649.587 261.166C649.694 261.324 649.857 261.435 650.043 261.477C650.229 261.518 650.424 261.487 650.588 261.39L653.531 259.538C653.613 259.483 653.683 259.413 653.738 259.332C653.793 259.25 653.832 259.158 653.851 259.062C653.871 258.965 653.871 258.866 653.852 258.77C653.833 258.673 653.795 258.581 653.74 258.499Z" fill="black"/>
<path opacity="0.1" d="M648.422 262.182L646.54 259.5C646.427 259.344 646.259 259.238 646.069 259.203C645.88 259.168 645.685 259.208 645.524 259.314L642.746 261.188C642.588 261.297 642.478 261.463 642.44 261.651C642.401 261.838 642.435 262.034 642.537 262.197L644.262 264.848C644.369 265.008 644.533 265.121 644.721 265.162C644.909 265.204 645.106 265.172 645.27 265.072L648.213 263.22C648.295 263.166 648.366 263.096 648.421 263.014C648.476 262.932 648.514 262.841 648.533 262.744C648.553 262.648 648.553 262.548 648.534 262.452C648.515 262.355 648.477 262.263 648.422 262.182Z" fill="black"/>
<path opacity="0.1" d="M643.336 266.2L640.998 262.869C640.973 262.832 640.941 262.8 640.904 262.775C640.867 262.751 640.825 262.734 640.781 262.725C640.738 262.717 640.693 262.718 640.649 262.727C640.605 262.736 640.564 262.754 640.527 262.779L637.107 265.087C637.069 265.111 637.036 265.143 637.011 265.18C636.986 265.216 636.968 265.258 636.959 265.302C636.95 265.346 636.95 265.391 636.958 265.435C636.967 265.479 636.984 265.52 637.009 265.558L639.153 268.851C639.202 268.927 639.279 268.98 639.367 269C639.455 269.02 639.547 269.004 639.624 268.956L643.239 266.715C643.282 266.691 643.319 266.657 643.348 266.616C643.377 266.576 643.397 266.529 643.407 266.48C643.416 266.431 643.414 266.381 643.402 266.332C643.39 266.284 643.367 266.239 643.336 266.2Z" fill="black"/>
<path opacity="0.1" d="M638.018 269.882L635.665 266.551C635.64 266.514 635.607 266.482 635.569 266.457C635.531 266.432 635.489 266.415 635.445 266.407C635.4 266.399 635.355 266.399 635.31 266.408C635.266 266.418 635.224 266.436 635.187 266.461L631.766 268.769C631.693 268.821 631.643 268.898 631.626 268.986C631.609 269.074 631.627 269.165 631.677 269.24L633.82 272.534C633.843 272.573 633.874 272.607 633.91 272.633C633.947 272.66 633.989 272.679 634.033 272.689C634.077 272.698 634.123 272.699 634.167 272.69C634.211 272.682 634.254 272.664 634.291 272.638L637.898 270.397C637.944 270.376 637.985 270.344 638.017 270.304C638.049 270.265 638.072 270.218 638.083 270.169C638.095 270.119 638.095 270.068 638.084 270.018C638.072 269.968 638.05 269.922 638.018 269.882Z" fill="black"/>
<path opacity="0.1" d="M633.305 273.146L630.967 269.845C630.915 269.773 630.836 269.724 630.748 269.708C630.661 269.693 630.57 269.713 630.497 269.763L627.076 272.063C627.001 272.115 626.949 272.193 626.931 272.282C626.913 272.372 626.93 272.464 626.979 272.541L629.122 275.835C629.173 275.909 629.249 275.961 629.337 275.981C629.424 276 629.516 275.985 629.593 275.939L633.208 273.699C633.258 273.675 633.301 273.64 633.334 273.596C633.368 273.553 633.39 273.502 633.399 273.447C633.409 273.393 633.405 273.338 633.389 273.285C633.372 273.233 633.344 273.185 633.305 273.146Z" fill="black"/>
<path opacity="0.1" d="M628.032 276.791L625.694 273.46C625.642 273.388 625.563 273.339 625.475 273.323C625.388 273.308 625.297 273.327 625.224 273.377L621.803 275.678C621.765 275.703 621.732 275.735 621.707 275.773C621.681 275.81 621.664 275.852 621.655 275.897C621.646 275.941 621.645 275.987 621.654 276.031C621.663 276.076 621.68 276.118 621.706 276.156L623.849 279.45C623.899 279.524 623.976 279.576 624.064 279.596C624.151 279.615 624.243 279.6 624.32 279.554L627.935 277.314C627.978 277.288 628.016 277.254 628.045 277.212C628.074 277.171 628.094 277.124 628.103 277.074C628.112 277.025 628.111 276.974 628.098 276.925C628.086 276.876 628.063 276.83 628.032 276.791Z" fill="black"/>
<path opacity="0.1" d="M622.923 280.301L620.585 276.97C620.561 276.933 620.529 276.901 620.491 276.877C620.454 276.852 620.413 276.835 620.369 276.827C620.325 276.818 620.28 276.819 620.236 276.828C620.193 276.837 620.151 276.855 620.115 276.88L616.694 279.188C616.656 279.213 616.624 279.244 616.599 279.281C616.573 279.318 616.556 279.359 616.547 279.403C616.537 279.447 616.537 279.492 616.546 279.536C616.555 279.58 616.572 279.622 616.597 279.659L618.741 282.953C618.79 283.028 618.866 283.082 618.954 283.101C619.042 283.121 619.135 283.105 619.211 283.057L622.826 280.817C622.869 280.792 622.907 280.758 622.936 280.717C622.965 280.677 622.985 280.63 622.994 280.581C623.003 280.532 623.002 280.482 622.989 280.433C622.977 280.385 622.955 280.34 622.923 280.301Z" fill="black"/>
<path opacity="0.1" d="M617.814 283.871L615.499 280.533C615.447 280.461 615.368 280.412 615.28 280.396C615.192 280.381 615.102 280.401 615.028 280.451L611.608 282.751C611.57 282.776 611.537 282.808 611.512 282.846C611.486 282.883 611.469 282.925 611.46 282.97C611.451 283.014 611.45 283.06 611.459 283.104C611.468 283.149 611.485 283.191 611.511 283.229L613.654 286.523C613.704 286.597 613.781 286.649 613.869 286.669C613.956 286.688 614.048 286.673 614.125 286.627L617.74 284.387C617.781 284.36 617.817 284.325 617.844 284.283C617.871 284.242 617.888 284.195 617.895 284.146C617.902 284.097 617.899 284.047 617.885 284C617.871 283.952 617.847 283.909 617.814 283.871Z" fill="black"/>
<path opacity="0.1" d="M612.706 287.404L610.368 284.073C610.343 284.036 610.311 284.004 610.274 283.98C610.237 283.955 610.195 283.938 610.151 283.93C610.108 283.921 610.063 283.922 610.019 283.931C609.975 283.94 609.934 283.958 609.897 283.983L606.477 286.276C606.439 286.301 606.406 286.332 606.381 286.369C606.356 286.406 606.338 286.447 606.329 286.491C606.32 286.535 606.32 286.58 606.328 286.624C606.337 286.668 606.354 286.71 606.379 286.747L608.523 290.041C608.572 290.116 608.649 290.17 608.737 290.189C608.825 290.209 608.917 290.193 608.994 290.145L612.609 287.905C612.65 287.88 612.685 287.847 612.713 287.807C612.74 287.768 612.759 287.723 612.768 287.676C612.777 287.629 612.776 287.58 612.766 287.533C612.755 287.487 612.734 287.443 612.706 287.404Z" fill="black"/>
<path opacity="0.1" d="M665.966 242.845L664.084 240.156C663.972 240 663.803 239.893 663.614 239.859C663.425 239.824 663.229 239.863 663.069 239.969L660.312 241.851C660.155 241.96 660.045 242.126 660.006 242.314C659.967 242.501 660.002 242.697 660.103 242.859L661.829 245.511C661.937 245.67 662.102 245.781 662.289 245.821C662.477 245.862 662.673 245.828 662.837 245.728L665.78 243.883C665.942 243.77 666.053 243.597 666.088 243.402C666.123 243.208 666.079 243.007 665.966 242.845Z" fill="black"/>
<path opacity="0.1" d="M658.61 232.216L656.727 229.513C656.615 229.359 656.448 229.253 656.26 229.219C656.073 229.184 655.879 229.222 655.719 229.326L652.933 231.201C652.776 231.31 652.666 231.475 652.627 231.663C652.588 231.851 652.623 232.046 652.724 232.209L654.449 234.86C654.556 235.02 654.721 235.133 654.909 235.175C655.096 235.216 655.293 235.184 655.458 235.084L658.401 233.24C658.562 233.13 658.675 232.962 658.714 232.771C658.753 232.579 658.715 232.38 658.61 232.216Z" fill="black"/>
<path opacity="0.1" d="M660.955 246.31L659.073 243.629C658.96 243.475 658.793 243.37 658.606 243.335C658.418 243.3 658.225 243.339 658.064 243.442L655.278 245.317C655.122 245.427 655.014 245.593 654.977 245.781C654.939 245.968 654.975 246.163 655.077 246.325L656.795 248.977C656.901 249.137 657.066 249.249 657.254 249.291C657.442 249.333 657.638 249.3 657.803 249.201L660.746 247.356C660.829 247.302 660.9 247.231 660.956 247.149C661.012 247.067 661.05 246.974 661.07 246.877C661.089 246.779 661.089 246.679 661.069 246.582C661.05 246.485 661.011 246.392 660.955 246.31Z" fill="black"/>
<path opacity="0.1" d="M655.697 249.947L653.815 247.266C653.702 247.11 653.533 247.004 653.344 246.969C653.155 246.934 652.96 246.974 652.799 247.079L650.02 248.932C649.861 249.041 649.75 249.208 649.711 249.397C649.672 249.587 649.708 249.784 649.811 249.947L651.537 252.599C651.644 252.758 651.81 252.869 651.997 252.909C652.185 252.95 652.381 252.916 652.545 252.816L655.488 250.971C655.649 250.861 655.762 250.693 655.801 250.502C655.84 250.311 655.802 250.112 655.697 249.947Z" fill="black"/>
<path opacity="0.1" d="M650.371 253.637L648.497 250.948C648.384 250.792 648.216 250.686 648.026 250.651C647.837 250.616 647.642 250.656 647.481 250.762L644.695 252.666C644.539 252.776 644.431 252.942 644.393 253.13C644.355 253.318 644.391 253.513 644.493 253.674L646.219 256.326C646.327 256.485 646.492 256.596 646.679 256.636C646.867 256.677 647.063 256.643 647.227 256.543L650.162 254.698C650.247 254.643 650.321 254.572 650.378 254.489C650.435 254.406 650.474 254.311 650.494 254.212C650.513 254.113 650.513 254.011 650.492 253.912C650.471 253.813 650.43 253.72 650.371 253.637Z" fill="black"/>
<path opacity="0.1" d="M653.717 235.854L651.835 233.172C651.723 233.018 651.556 232.913 651.368 232.879C651.181 232.844 650.987 232.882 650.827 232.986L648.041 234.86C647.883 234.969 647.774 235.135 647.735 235.323C647.696 235.51 647.731 235.706 647.832 235.869L649.557 238.52C649.664 238.68 649.829 238.793 650.016 238.834C650.204 238.876 650.401 238.844 650.566 238.744L653.508 236.899C653.591 236.845 653.663 236.775 653.719 236.692C653.774 236.61 653.813 236.518 653.832 236.42C653.852 236.323 653.852 236.223 653.832 236.125C653.812 236.028 653.773 235.936 653.717 235.854Z" fill="black"/>
<path opacity="0.1" d="M648.459 239.498L646.577 236.81C646.464 236.654 646.296 236.547 646.107 236.512C645.917 236.478 645.722 236.517 645.561 236.623L642.783 238.475C642.625 238.584 642.516 238.75 642.477 238.938C642.438 239.125 642.473 239.321 642.574 239.484L644.299 242.135C644.407 242.294 644.572 242.405 644.76 242.445C644.948 242.486 645.144 242.452 645.307 242.352L648.25 240.507C648.408 240.398 648.517 240.232 648.556 240.044C648.595 239.857 648.561 239.661 648.459 239.498Z" fill="black"/>
<path opacity="0.1" d="M643.134 243.181L641.252 240.499C641.14 240.344 640.974 240.238 640.786 240.201C640.599 240.165 640.405 240.202 640.244 240.305L637.458 242.21C637.301 242.32 637.193 242.486 637.156 242.674C637.118 242.861 637.154 243.056 637.256 243.218L638.981 245.869C639.088 246.03 639.253 246.142 639.44 246.184C639.628 246.226 639.825 246.193 639.99 246.094L642.925 244.241C643.01 244.187 643.083 244.116 643.14 244.032C643.197 243.949 643.237 243.855 643.256 243.756C643.276 243.657 643.275 243.554 643.254 243.456C643.233 243.357 643.192 243.263 643.134 243.181Z" fill="black"/>
<path opacity="0.1" d="M645.054 257.319L643.171 254.638C643.06 254.483 642.893 254.376 642.706 254.34C642.518 254.304 642.324 254.341 642.163 254.444L639.4 256.326C639.243 256.436 639.135 256.602 639.098 256.79C639.06 256.977 639.096 257.172 639.198 257.334L640.893 259.986C641 260.144 641.163 260.255 641.349 260.297C641.535 260.338 641.73 260.307 641.894 260.21L644.837 258.357C644.92 258.304 644.991 258.234 645.047 258.153C645.102 258.072 645.141 257.98 645.161 257.884C645.182 257.787 645.182 257.687 645.164 257.591C645.145 257.494 645.108 257.402 645.054 257.319Z" fill="black"/>
<path opacity="0.1" d="M639.736 261.001L637.853 258.32C637.741 258.164 637.572 258.058 637.383 258.023C637.194 257.988 636.998 258.028 636.838 258.133L634.059 260.008C633.902 260.117 633.792 260.283 633.753 260.47C633.714 260.658 633.749 260.854 633.85 261.016L635.575 263.668C635.682 263.828 635.847 263.941 636.035 263.982C636.222 264.024 636.419 263.992 636.584 263.892L639.526 262.047C639.61 261.993 639.681 261.923 639.737 261.84C639.792 261.758 639.831 261.666 639.851 261.568C639.87 261.471 639.87 261.371 639.85 261.273C639.83 261.176 639.791 261.084 639.736 261.001Z" fill="black"/>
<path opacity="0.1" d="M634.649 265.02L632.312 261.689C632.287 261.652 632.255 261.62 632.218 261.595C632.181 261.571 632.139 261.554 632.095 261.545C632.051 261.537 632.006 261.537 631.963 261.547C631.919 261.556 631.878 261.574 631.841 261.599L628.42 263.907C628.383 263.931 628.35 263.963 628.325 263.999C628.299 264.036 628.282 264.078 628.273 264.122C628.264 264.166 628.263 264.211 628.272 264.255C628.281 264.299 628.298 264.34 628.323 264.377L630.467 267.671C630.49 267.709 630.521 267.743 630.558 267.769C630.595 267.795 630.636 267.813 630.68 267.823C630.724 267.833 630.769 267.834 630.813 267.825C630.858 267.817 630.9 267.8 630.937 267.776L634.552 265.535C634.596 265.51 634.633 265.477 634.662 265.436C634.691 265.395 634.711 265.349 634.72 265.3C634.729 265.251 634.728 265.2 634.716 265.152C634.703 265.104 634.681 265.059 634.649 265.02Z" fill="black"/>
<path opacity="0.1" d="M629.936 268.284L627.599 264.945C627.546 264.873 627.468 264.824 627.38 264.809C627.292 264.794 627.202 264.813 627.128 264.863L623.715 267.163C623.64 267.215 623.588 267.294 623.57 267.383C623.552 267.472 623.569 267.565 623.618 267.641L625.761 270.935C625.812 271.009 625.888 271.062 625.976 271.081C626.063 271.1 626.155 271.086 626.232 271.04L629.847 268.799C629.892 268.776 629.931 268.742 629.961 268.702C629.991 268.661 630.011 268.613 630.019 268.564C630.028 268.514 630.025 268.462 630.011 268.414C629.996 268.365 629.971 268.321 629.936 268.284Z" fill="black"/>
<path opacity="0.1" d="M624.663 271.929L622.326 268.597C622.273 268.525 622.195 268.476 622.107 268.461C622.019 268.446 621.929 268.465 621.855 268.515L618.434 270.816C618.397 270.84 618.364 270.871 618.339 270.908C618.314 270.945 618.296 270.987 618.287 271.03C618.278 271.074 618.278 271.12 618.286 271.163C618.295 271.207 618.312 271.249 618.337 271.286L620.481 274.587C620.531 274.662 620.608 274.714 620.695 274.733C620.783 274.753 620.874 274.738 620.951 274.692L624.566 272.451C624.61 272.426 624.647 272.391 624.676 272.35C624.706 272.309 624.725 272.262 624.735 272.212C624.744 272.163 624.742 272.112 624.73 272.063C624.718 272.014 624.695 271.968 624.663 271.929Z" fill="black"/>
<path opacity="0.1" d="M619.555 275.469L617.217 272.138C617.192 272.101 617.16 272.069 617.123 272.044C617.086 272.02 617.044 272.003 617 271.994C616.957 271.986 616.912 271.986 616.868 271.996C616.824 272.005 616.783 272.023 616.746 272.048L613.326 274.326C613.288 274.35 613.255 274.382 613.23 274.419C613.205 274.455 613.187 274.497 613.178 274.541C613.169 274.585 613.169 274.63 613.177 274.674C613.186 274.718 613.203 274.759 613.228 274.797L615.372 278.09C615.421 278.166 615.498 278.219 615.586 278.239C615.674 278.259 615.766 278.243 615.843 278.195L619.458 275.954C619.496 275.929 619.53 275.897 619.556 275.859C619.582 275.821 619.6 275.778 619.609 275.732C619.618 275.687 619.618 275.64 619.609 275.595C619.599 275.55 619.581 275.507 619.555 275.469Z" fill="black"/>
<path opacity="0.1" d="M652.194 244.891L650.312 242.21C650.199 242.056 650.032 241.951 649.845 241.916C649.657 241.881 649.463 241.92 649.303 242.023L646.517 243.905C646.361 244.015 646.253 244.181 646.215 244.369C646.178 244.557 646.214 244.752 646.316 244.913L648.041 247.565C648.149 247.722 648.313 247.831 648.499 247.872C648.685 247.912 648.879 247.88 649.042 247.781L651.985 245.937C652.068 245.882 652.139 245.812 652.195 245.73C652.251 245.648 652.289 245.555 652.309 245.458C652.328 245.36 652.328 245.26 652.308 245.163C652.289 245.066 652.25 244.973 652.194 244.891Z" fill="black"/>
<path opacity="0.1" d="M646.868 248.581L644.986 245.892C644.874 245.736 644.705 245.629 644.516 245.595C644.327 245.56 644.131 245.599 643.97 245.705L641.192 247.587C641.034 247.696 640.925 247.862 640.886 248.05C640.847 248.237 640.882 248.433 640.983 248.596L642.708 251.247C642.815 251.407 642.98 251.52 643.167 251.562C643.355 251.603 643.552 251.571 643.717 251.471L646.659 249.619C646.741 249.565 646.812 249.495 646.867 249.413C646.922 249.331 646.96 249.24 646.98 249.143C646.999 249.047 646.999 248.947 646.98 248.851C646.961 248.754 646.923 248.662 646.868 248.581Z" fill="black"/>
<path opacity="0.1" d="M641.558 252.263L639.676 249.582C639.563 249.426 639.395 249.319 639.205 249.284C639.016 249.25 638.821 249.289 638.66 249.395L635.874 251.269C635.718 251.38 635.61 251.546 635.572 251.733C635.535 251.921 635.571 252.116 635.673 252.278L637.398 254.929C637.505 255.089 637.669 255.202 637.857 255.244C638.045 255.285 638.242 255.253 638.406 255.153L641.341 253.301C641.424 253.247 641.495 253.178 641.551 253.096C641.607 253.015 641.646 252.924 641.666 252.827C641.686 252.731 641.687 252.631 641.668 252.534C641.65 252.437 641.612 252.345 641.558 252.263Z" fill="black"/>
<path opacity="0.1" d="M636.233 255.945L634.351 253.264C634.238 253.11 634.071 253.005 633.883 252.97C633.696 252.935 633.502 252.974 633.342 253.077L630.556 254.952C630.4 255.062 630.292 255.228 630.254 255.416C630.217 255.603 630.253 255.798 630.355 255.96L632.08 258.641C632.187 258.799 632.35 258.911 632.536 258.952C632.722 258.994 632.917 258.963 633.081 258.865L636.024 257.021C636.111 256.966 636.186 256.895 636.245 256.81C636.303 256.725 636.343 256.629 636.363 256.528C636.383 256.427 636.381 256.324 636.359 256.223C636.336 256.123 636.293 256.028 636.233 255.945Z" fill="black"/>
<path opacity="0.1" d="M631.184 259.963L628.846 256.632C628.821 256.595 628.789 256.563 628.752 256.539C628.715 256.514 628.673 256.497 628.629 256.489C628.586 256.48 628.541 256.481 628.497 256.49C628.453 256.499 628.412 256.517 628.375 256.543L624.955 258.85C624.88 258.901 624.828 258.978 624.81 259.066C624.792 259.154 624.809 259.245 624.858 259.321L627.001 262.622C627.025 262.66 627.057 262.692 627.094 262.718C627.131 262.743 627.172 262.761 627.216 262.77C627.26 262.779 627.305 262.779 627.349 262.77C627.393 262.762 627.435 262.744 627.472 262.719L631.087 260.479C631.13 260.454 631.168 260.42 631.197 260.38C631.226 260.339 631.245 260.293 631.255 260.244C631.264 260.194 631.262 260.144 631.25 260.096C631.238 260.047 631.215 260.002 631.184 259.963Z" fill="black"/>
<path opacity="0.1" d="M626.441 263.227L624.103 259.889C624.049 259.816 623.97 259.767 623.881 259.752C623.792 259.736 623.7 259.756 623.625 259.806L620.212 262.107C620.137 262.158 620.085 262.237 620.067 262.326C620.049 262.415 620.066 262.508 620.115 262.585L622.258 265.879C622.307 265.954 622.384 266.008 622.472 266.027C622.56 266.047 622.652 266.031 622.729 265.983L626.344 263.743C626.387 263.718 626.425 263.684 626.454 263.644C626.483 263.603 626.503 263.556 626.512 263.507C626.521 263.458 626.52 263.408 626.507 263.36C626.495 263.311 626.472 263.266 626.441 263.227Z" fill="black"/>
<path opacity="0.1" d="M621.168 266.857L618.83 263.519C618.776 263.446 618.697 263.397 618.608 263.382C618.519 263.366 618.427 263.386 618.352 263.436L614.931 265.737C614.858 265.79 614.807 265.868 614.789 265.957C614.771 266.045 614.787 266.138 614.834 266.215L616.985 269.509C617.034 269.584 617.111 269.638 617.199 269.657C617.287 269.677 617.379 269.661 617.456 269.613L621.063 267.372C621.108 267.349 621.148 267.317 621.178 267.276C621.209 267.236 621.23 267.19 621.24 267.14C621.25 267.09 621.249 267.039 621.236 266.99C621.224 266.941 621.2 266.896 621.168 266.857Z" fill="black"/>
<path opacity="0.1" d="M616.059 270.412L613.721 267.081C613.696 267.044 613.663 267.012 613.626 266.987C613.588 266.963 613.545 266.946 613.501 266.937C613.457 266.929 613.411 266.929 613.367 266.939C613.323 266.948 613.281 266.966 613.243 266.992L609.823 269.299C609.749 269.351 609.699 269.429 609.682 269.517C609.666 269.604 609.684 269.695 609.733 269.77L611.877 273.064C611.899 273.103 611.93 273.137 611.967 273.163C612.003 273.19 612.045 273.209 612.089 273.219C612.133 273.229 612.179 273.229 612.223 273.221C612.268 273.212 612.31 273.194 612.347 273.168L615.955 270.928C616 270.905 616.039 270.872 616.069 270.832C616.1 270.791 616.121 270.745 616.131 270.695C616.141 270.646 616.14 270.595 616.127 270.546C616.115 270.497 616.092 270.451 616.059 270.412Z" fill="black"/>
<path opacity="0.1" d="M614.446 279.002L612.108 275.67C612.056 275.598 611.977 275.55 611.889 275.534C611.802 275.519 611.711 275.538 611.638 275.588L608.217 277.889C608.179 277.913 608.147 277.944 608.121 277.981C608.096 278.018 608.078 278.06 608.069 278.104C608.06 278.147 608.06 278.193 608.069 278.236C608.077 278.28 608.095 278.322 608.12 278.359L610.263 281.661C610.314 281.735 610.39 281.787 610.478 281.806C610.565 281.826 610.657 281.811 610.734 281.765L614.349 279.524C614.392 279.499 614.43 279.464 614.459 279.423C614.488 279.382 614.508 279.335 614.517 279.285C614.526 279.236 614.525 279.185 614.512 279.136C614.5 279.087 614.477 279.041 614.446 279.002Z" fill="black"/>
<path opacity="0.1" d="M609.337 282.542L606.999 279.211C606.975 279.174 606.943 279.142 606.905 279.117C606.868 279.093 606.827 279.076 606.783 279.067C606.739 279.059 606.694 279.06 606.65 279.069C606.607 279.078 606.565 279.096 606.529 279.121L603.108 281.429C603.07 281.453 603.038 281.485 603.013 281.522C602.987 281.558 602.97 281.6 602.961 281.644C602.952 281.688 602.951 281.733 602.96 281.777C602.969 281.821 602.986 281.862 603.011 281.9L605.155 285.193C605.204 285.269 605.28 285.322 605.368 285.342C605.456 285.362 605.549 285.346 605.625 285.298L609.24 283.057C609.283 283.033 609.321 282.999 609.35 282.958C609.379 282.918 609.399 282.871 609.408 282.822C609.417 282.773 609.416 282.723 609.403 282.674C609.391 282.626 609.369 282.581 609.337 282.542Z" fill="black"/>
<path opacity="0.1" d="M617.359 261.375L615.118 258.238C615.048 258.14 614.942 258.074 614.823 258.053C614.705 258.032 614.583 258.058 614.483 258.126L611.257 260.299C611.206 260.333 611.163 260.375 611.13 260.425C611.096 260.475 611.073 260.531 611.061 260.59C611.049 260.649 611.049 260.71 611.061 260.769C611.073 260.828 611.096 260.884 611.13 260.934L613.146 264.034C613.177 264.085 613.219 264.13 613.267 264.164C613.316 264.199 613.371 264.224 613.43 264.238C613.488 264.251 613.549 264.252 613.608 264.242C613.667 264.231 613.723 264.209 613.774 264.176L617.187 262.032C617.243 262.002 617.293 261.961 617.332 261.911C617.372 261.86 617.4 261.803 617.416 261.741C617.432 261.679 617.436 261.615 617.426 261.552C617.416 261.489 617.393 261.429 617.359 261.375Z" fill="black"/>
<path opacity="0.1" d="M612.25 264.915L610.047 261.778C610.013 261.729 609.97 261.686 609.92 261.653C609.869 261.62 609.813 261.598 609.754 261.587C609.695 261.575 609.634 261.576 609.576 261.588C609.517 261.601 609.461 261.625 609.412 261.659L606.185 263.87C606.135 263.902 606.092 263.944 606.059 263.993C606.025 264.043 606.002 264.098 605.99 264.157C605.978 264.215 605.978 264.275 605.99 264.334C606.002 264.392 606.025 264.448 606.058 264.497L608.075 267.604C608.141 267.704 608.243 267.775 608.36 267.802C608.477 267.828 608.6 267.808 608.702 267.746L612.116 265.602C612.173 265.569 612.223 265.524 612.262 265.47C612.3 265.416 612.327 265.355 612.34 265.289C612.353 265.224 612.351 265.157 612.336 265.093C612.32 265.028 612.291 264.968 612.25 264.915Z" fill="black"/>
<path opacity="0.1" d="M607.141 268.455L604.938 265.311C604.867 265.214 604.762 265.147 604.643 265.126C604.525 265.106 604.403 265.132 604.303 265.199L601.076 267.372C601.026 267.406 600.983 267.448 600.949 267.498C600.916 267.548 600.892 267.604 600.881 267.663C600.869 267.722 600.869 267.783 600.881 267.842C600.892 267.901 600.916 267.957 600.95 268.007L602.966 271.107C602.997 271.158 603.039 271.203 603.087 271.238C603.136 271.273 603.191 271.297 603.25 271.311C603.308 271.324 603.369 271.325 603.428 271.315C603.487 271.304 603.543 271.282 603.594 271.249L607.007 269.105C607.06 269.073 607.106 269.03 607.141 268.979C607.177 268.928 607.202 268.87 607.214 268.809C607.227 268.749 607.227 268.686 607.214 268.625C607.202 268.564 607.177 268.506 607.141 268.455Z" fill="black"/>
<path opacity="0.1" d="M602.1 272.085L599.762 268.747C599.709 268.675 599.631 268.626 599.543 268.611C599.456 268.595 599.365 268.615 599.291 268.665L595.871 270.965C595.796 271.017 595.744 271.095 595.726 271.184C595.707 271.274 595.725 271.366 595.774 271.443L597.917 274.737C597.967 274.811 598.044 274.863 598.132 274.883C598.219 274.902 598.311 274.887 598.388 274.841L602.003 272.601C602.048 272.578 602.088 272.545 602.119 272.505C602.149 272.464 602.17 272.417 602.179 272.367C602.189 272.317 602.187 272.266 602.173 272.217C602.159 272.168 602.134 272.123 602.1 272.085Z" fill="black"/>
<path opacity="0.1" d="M662.553 237.616L660.529 234.741C660.415 234.586 660.246 234.481 660.057 234.448C659.868 234.414 659.673 234.455 659.513 234.562L651.611 240.096C651.458 240.207 651.353 240.372 651.317 240.558C651.281 240.744 651.317 240.936 651.417 241.097L653.322 244.04C653.376 244.121 653.447 244.191 653.529 244.245C653.611 244.299 653.702 244.337 653.799 244.356C653.895 244.375 653.995 244.374 654.091 244.354C654.187 244.335 654.278 244.296 654.36 244.241L662.381 238.632C662.535 238.517 662.638 238.348 662.67 238.159C662.702 237.969 662.66 237.775 662.553 237.616Z" fill="black"/>
<path opacity="0.1" d="M610.935 273.841L608.456 270.338C608.43 270.3 608.398 270.268 608.36 270.244C608.322 270.219 608.279 270.202 608.234 270.195C608.19 270.187 608.144 270.188 608.1 270.199C608.056 270.209 608.014 270.229 607.978 270.255L599.448 276.231C599.376 276.281 599.325 276.357 599.309 276.444C599.292 276.53 599.31 276.62 599.359 276.694L601.689 280.301C601.714 280.34 601.746 280.374 601.785 280.4C601.823 280.426 601.866 280.444 601.911 280.453C601.956 280.462 602.003 280.462 602.048 280.453C602.094 280.443 602.136 280.425 602.174 280.398L610.846 274.326C610.922 274.273 610.974 274.193 610.99 274.102C611.007 274.011 610.987 273.917 610.935 273.841Z" fill="black"/>
<path opacity="0.1" d="M638.07 247.05L635.785 243.703C635.733 243.63 635.655 243.58 635.567 243.563C635.48 243.546 635.389 243.565 635.314 243.614L616.373 256.401C616.298 256.451 616.246 256.528 616.228 256.616C616.21 256.704 616.227 256.796 616.276 256.871L618.613 260.456C618.638 260.495 618.671 260.529 618.709 260.555C618.747 260.581 618.79 260.599 618.836 260.608C618.881 260.617 618.928 260.617 618.973 260.608C619.018 260.598 619.061 260.58 619.099 260.553L637.98 247.528C638.018 247.502 638.05 247.47 638.074 247.432C638.099 247.394 638.116 247.352 638.124 247.307C638.133 247.263 638.132 247.217 638.123 247.173C638.114 247.129 638.096 247.087 638.07 247.05Z" fill="black"/>
</g>
<path d="M669.828 247.796L667.946 245.108C667.833 244.952 667.665 244.845 667.475 244.81C667.286 244.776 667.091 244.815 666.93 244.921L664.152 246.803C663.994 246.912 663.884 247.078 663.845 247.265C663.806 247.453 663.841 247.649 663.942 247.811L665.668 250.463C665.775 250.623 665.939 250.736 666.127 250.777C666.315 250.819 666.511 250.787 666.676 250.687L669.619 248.835C669.701 248.78 669.771 248.71 669.826 248.629C669.881 248.547 669.92 248.455 669.939 248.359C669.959 248.263 669.959 248.163 669.94 248.067C669.921 247.97 669.883 247.878 669.828 247.796Z" fill="#464A5F"/>
<path d="M664.794 251.262L662.912 248.581C662.799 248.427 662.632 248.322 662.444 248.287C662.257 248.252 662.063 248.29 661.903 248.394L659.117 250.269C658.96 250.378 658.85 250.543 658.811 250.731C658.772 250.919 658.807 251.114 658.908 251.277L660.634 253.928C660.74 254.088 660.905 254.201 661.093 254.243C661.281 254.285 661.477 254.252 661.642 254.152L664.585 252.308C664.668 252.253 664.739 252.183 664.795 252.101C664.85 252.019 664.889 251.926 664.909 251.829C664.928 251.731 664.928 251.631 664.908 251.534C664.889 251.436 664.85 251.344 664.794 251.262Z" fill="#464A5F"/>
<path d="M659.566 254.907L657.683 252.225C657.571 252.07 657.402 251.963 657.213 251.928C657.024 251.893 656.828 251.933 656.668 252.039L653.889 253.921C653.732 254.03 653.622 254.196 653.583 254.383C653.544 254.571 653.579 254.766 653.68 254.929L655.405 257.581C655.513 257.74 655.678 257.851 655.866 257.891C656.054 257.931 656.25 257.898 656.414 257.797L659.356 255.952C659.44 255.898 659.511 255.828 659.567 255.746C659.622 255.663 659.661 255.571 659.68 255.474C659.7 255.376 659.7 255.276 659.68 255.179C659.66 255.081 659.621 254.989 659.566 254.907Z" fill="#464A5F"/>
<path d="M654.233 258.589L652.351 255.9C652.238 255.746 652.071 255.641 651.884 255.606C651.696 255.572 651.502 255.61 651.342 255.713L648.556 257.596C648.474 257.651 648.404 257.722 648.35 257.805C648.296 257.888 648.259 257.981 648.241 258.078C648.223 258.175 648.224 258.275 648.245 258.372C648.266 258.469 648.306 258.56 648.362 258.641L650.087 261.293C650.194 261.453 650.359 261.565 650.547 261.607C650.735 261.649 650.931 261.617 651.096 261.517L654.031 259.665C654.118 259.61 654.192 259.538 654.25 259.453C654.308 259.368 654.347 259.272 654.366 259.171C654.385 259.07 654.383 258.966 654.36 258.866C654.337 258.766 654.294 258.672 654.233 258.589Z" fill="#464A5F"/>
<path d="M648.915 262.271L647.033 259.59C646.92 259.436 646.753 259.331 646.566 259.296C646.378 259.261 646.185 259.3 646.024 259.403L643.239 261.278C643.082 261.388 642.974 261.554 642.937 261.742C642.899 261.929 642.935 262.124 643.037 262.286L644.755 264.938C644.862 265.098 645.026 265.21 645.214 265.252C645.402 265.294 645.599 265.261 645.763 265.162L648.706 263.309C648.788 263.255 648.859 263.185 648.913 263.104C648.968 263.022 649.007 262.93 649.026 262.834C649.046 262.737 649.046 262.638 649.027 262.541C649.008 262.445 648.97 262.353 648.915 262.271Z" fill="#464A5F"/>
<path d="M643.829 266.289L641.491 262.958C641.466 262.921 641.434 262.89 641.397 262.865C641.36 262.84 641.318 262.823 641.274 262.815C641.231 262.807 641.185 262.807 641.142 262.816C641.098 262.826 641.057 262.843 641.02 262.869L637.6 265.177C637.562 265.201 637.529 265.232 637.504 265.269C637.479 265.306 637.461 265.348 637.452 265.391C637.443 265.435 637.443 265.48 637.451 265.524C637.46 265.568 637.477 265.61 637.502 265.647L639.646 268.941C639.695 269.017 639.772 269.07 639.86 269.09C639.948 269.109 640.04 269.093 640.117 269.045L643.731 266.805C643.775 266.78 643.812 266.746 643.841 266.706C643.87 266.665 643.89 266.619 643.9 266.57C643.909 266.521 643.907 266.47 643.895 266.422C643.883 266.373 643.86 266.328 643.829 266.289Z" fill="#464A5F"/>
<path d="M638.511 269.972L636.173 266.641C636.147 266.603 636.115 266.571 636.077 266.547C636.039 266.522 635.997 266.505 635.953 266.497C635.908 266.488 635.863 266.489 635.818 266.498C635.774 266.507 635.732 266.525 635.695 266.551L632.282 268.859C632.244 268.883 632.212 268.914 632.186 268.951C632.161 268.988 632.143 269.03 632.134 269.074C632.125 269.117 632.125 269.163 632.134 269.207C632.142 269.25 632.16 269.292 632.185 269.329L634.328 272.631C634.352 272.668 634.384 272.701 634.421 272.726C634.458 272.751 634.499 272.769 634.543 272.778C634.587 272.787 634.632 272.787 634.676 272.779C634.72 272.77 634.762 272.753 634.799 272.728L638.414 270.487C638.456 270.461 638.493 270.427 638.521 270.387C638.549 270.346 638.569 270.3 638.578 270.251C638.587 270.202 638.586 270.152 638.574 270.104C638.563 270.056 638.541 270.011 638.511 269.972Z" fill="#464A5F"/>
<path d="M633.798 273.236L631.46 269.897C631.407 269.825 631.329 269.776 631.241 269.761C631.154 269.745 631.063 269.765 630.989 269.815L627.569 272.085C627.494 272.137 627.442 272.216 627.424 272.305C627.405 272.394 627.423 272.487 627.472 272.563L629.615 275.857C629.665 275.931 629.742 275.984 629.83 276.003C629.917 276.022 630.009 276.008 630.086 275.962L633.701 273.721C633.74 273.696 633.773 273.664 633.799 273.625C633.825 273.587 633.843 273.544 633.852 273.499C633.862 273.454 633.861 273.407 633.852 273.362C633.843 273.316 633.824 273.274 633.798 273.236Z" fill="#464A5F"/>
<path d="M628.525 276.888L626.187 273.579C626.134 273.507 626.056 273.458 625.968 273.443C625.88 273.428 625.79 273.447 625.716 273.497L622.296 275.797C622.258 275.822 622.225 275.854 622.2 275.892C622.174 275.93 622.157 275.972 622.147 276.016C622.138 276.061 622.138 276.106 622.147 276.151C622.156 276.195 622.173 276.238 622.198 276.275L624.342 279.569C624.392 279.643 624.469 279.696 624.557 279.715C624.644 279.734 624.736 279.72 624.813 279.674L628.428 277.433C628.476 277.409 628.518 277.374 628.55 277.331C628.583 277.288 628.605 277.238 628.614 277.185C628.624 277.132 628.62 277.077 628.605 277.026C628.589 276.974 628.562 276.927 628.525 276.888Z" fill="#464A5F"/>
<path d="M623.416 280.421L621.078 277.09C621.053 277.052 621.022 277.021 620.984 276.996C620.947 276.971 620.906 276.955 620.862 276.946C620.818 276.938 620.773 276.938 620.729 276.948C620.686 276.957 620.644 276.975 620.608 277L617.187 279.308C617.149 279.332 617.117 279.363 617.092 279.4C617.066 279.437 617.048 279.479 617.039 279.523C617.03 279.566 617.03 279.612 617.039 279.656C617.047 279.699 617.065 279.741 617.09 279.778L619.233 283.072C619.257 283.11 619.288 283.144 619.325 283.17C619.361 283.196 619.403 283.214 619.447 283.224C619.49 283.234 619.536 283.234 619.58 283.226C619.624 283.218 619.666 283.201 619.704 283.177L623.319 280.936C623.362 280.911 623.4 280.878 623.429 280.837C623.458 280.796 623.478 280.75 623.487 280.701C623.496 280.652 623.495 280.601 623.482 280.553C623.47 280.505 623.447 280.459 623.416 280.421Z" fill="#464A5F"/>
<path d="M618.307 283.961L615.969 280.622C615.917 280.55 615.839 280.501 615.751 280.486C615.663 280.471 615.573 280.49 615.499 280.54L612.078 282.841C612.003 282.892 611.951 282.971 611.933 283.06C611.915 283.149 611.932 283.242 611.981 283.319L614.125 286.612C614.175 286.687 614.252 286.739 614.339 286.758C614.427 286.778 614.518 286.763 614.595 286.717L618.21 284.476C618.254 284.452 618.291 284.418 618.32 284.377C618.349 284.337 618.369 284.29 618.378 284.241C618.387 284.192 618.386 284.142 618.374 284.093C618.361 284.045 618.339 284 618.307 283.961Z" fill="#464A5F"/>
<path d="M613.198 287.494L610.861 284.163C610.836 284.126 610.804 284.094 610.767 284.069C610.73 284.045 610.688 284.028 610.644 284.019C610.6 284.011 610.555 284.011 610.512 284.021C610.468 284.03 610.427 284.048 610.39 284.073L606.969 286.381C606.932 286.405 606.899 286.437 606.874 286.473C606.849 286.51 606.831 286.552 606.822 286.596C606.813 286.64 606.813 286.685 606.821 286.729C606.83 286.773 606.847 286.814 606.872 286.851L609.016 290.145C609.039 290.183 609.07 290.217 609.107 290.243C609.144 290.269 609.185 290.287 609.229 290.297C609.273 290.307 609.318 290.307 609.363 290.299C609.407 290.291 609.449 290.274 609.486 290.25L613.101 288.009C613.145 287.984 613.182 287.951 613.211 287.91C613.24 287.869 613.26 287.823 613.269 287.774C613.279 287.725 613.277 287.674 613.265 287.626C613.253 287.578 613.23 287.532 613.198 287.494Z" fill="#464A5F"/>
<path d="M666.459 242.957L664.577 240.268C664.465 240.114 664.298 240.009 664.11 239.974C663.923 239.939 663.729 239.978 663.569 240.081L660.783 241.963C660.627 242.073 660.519 242.24 660.481 242.427C660.444 242.615 660.479 242.81 660.581 242.971L662.299 245.623C662.406 245.783 662.571 245.896 662.758 245.937C662.946 245.979 663.143 245.947 663.308 245.847L666.25 243.995C666.332 243.94 666.403 243.871 666.458 243.789C666.513 243.707 666.551 243.616 666.571 243.519C666.59 243.423 666.59 243.323 666.571 243.227C666.552 243.13 666.514 243.038 666.459 242.957Z" fill="#464A5F"/>
<path d="M659.102 232.306L657.22 229.625C657.108 229.471 656.941 229.366 656.753 229.331C656.566 229.296 656.372 229.334 656.212 229.438L653.426 231.313C653.27 231.423 653.162 231.589 653.124 231.776C653.087 231.964 653.123 232.159 653.224 232.321L654.95 234.972C655.056 235.13 655.22 235.242 655.406 235.283C655.592 235.325 655.787 235.294 655.951 235.196L658.893 233.352C658.976 233.297 659.048 233.227 659.104 233.145C659.159 233.062 659.198 232.97 659.217 232.873C659.237 232.775 659.237 232.675 659.217 232.578C659.197 232.48 659.158 232.388 659.102 232.306Z" fill="#464A5F"/>
<path d="M661.448 246.4L659.566 243.703C659.453 243.55 659.286 243.444 659.098 243.41C658.911 243.375 658.717 243.413 658.557 243.517L655.771 245.391C655.615 245.502 655.507 245.668 655.469 245.855C655.432 246.043 655.468 246.238 655.57 246.4L657.295 249.051C657.402 249.209 657.565 249.321 657.751 249.362C657.937 249.404 658.132 249.373 658.296 249.275L661.239 247.43C661.402 247.321 661.516 247.151 661.555 246.958C661.594 246.765 661.556 246.564 661.448 246.4Z" fill="#464A5F"/>
<path d="M656.19 250.037L654.337 247.356C654.225 247.202 654.058 247.097 653.87 247.062C653.683 247.027 653.489 247.066 653.329 247.169L650.543 249.044C650.385 249.154 650.275 249.322 650.238 249.511C650.2 249.7 650.237 249.897 650.341 250.059L652.059 252.711C652.167 252.87 652.332 252.981 652.52 253.021C652.708 253.062 652.904 253.028 653.068 252.928L656.01 251.083C656.091 251.026 656.16 250.954 656.213 250.871C656.265 250.787 656.301 250.694 656.318 250.597C656.335 250.5 656.332 250.4 656.31 250.304C656.288 250.208 656.247 250.117 656.19 250.037Z" fill="#464A5F"/>
<path d="M650.872 253.727L648.99 251.038C648.877 250.882 648.708 250.775 648.519 250.741C648.33 250.706 648.135 250.746 647.974 250.851L645.195 252.733C645.038 252.842 644.928 253.008 644.889 253.196C644.85 253.383 644.885 253.579 644.986 253.742L646.712 256.393C646.818 256.553 646.983 256.666 647.171 256.708C647.359 256.749 647.555 256.717 647.72 256.617L650.663 254.765C650.745 254.711 650.815 254.641 650.87 254.559C650.925 254.477 650.964 254.386 650.983 254.289C651.002 254.193 651.003 254.093 650.983 253.997C650.964 253.9 650.926 253.809 650.872 253.727Z" fill="#464A5F"/>
<path d="M654.21 235.943L652.328 233.247C652.216 233.093 652.049 232.988 651.861 232.953C651.674 232.919 651.48 232.957 651.32 233.06L648.534 234.935C648.378 235.045 648.27 235.211 648.232 235.399C648.195 235.586 648.23 235.781 648.332 235.943L650.058 238.595C650.164 238.753 650.327 238.864 650.514 238.906C650.7 238.947 650.895 238.916 651.058 238.819L654.001 236.974C654.165 236.864 654.279 236.695 654.318 236.502C654.357 236.309 654.319 236.108 654.21 235.943Z" fill="#464A5F"/>
<path d="M648.952 239.588L647.07 236.899C646.958 236.745 646.79 236.64 646.603 236.606C646.415 236.571 646.222 236.609 646.062 236.713L643.276 238.595C643.118 238.704 643.009 238.869 642.97 239.057C642.931 239.245 642.965 239.44 643.067 239.603L644.792 242.254C644.899 242.415 645.063 242.527 645.251 242.569C645.439 242.611 645.636 242.578 645.8 242.479L648.743 240.626C648.825 240.572 648.896 240.502 648.951 240.42C649.006 240.339 649.044 240.247 649.063 240.151C649.083 240.054 649.083 239.955 649.064 239.858C649.045 239.762 649.007 239.67 648.952 239.588Z" fill="#464A5F"/>
<path d="M643.634 243.27L641.752 240.589C641.639 240.433 641.471 240.326 641.282 240.292C641.092 240.257 640.897 240.296 640.736 240.402L637.958 242.277C637.8 242.386 637.691 242.552 637.652 242.739C637.613 242.927 637.648 243.122 637.749 243.285L639.474 245.944C639.581 246.104 639.745 246.217 639.933 246.259C640.121 246.3 640.318 246.268 640.482 246.168L643.418 244.316C643.501 244.262 643.574 244.192 643.63 244.11C643.686 244.028 643.726 243.936 643.746 243.839C643.766 243.741 643.767 243.641 643.747 243.543C643.728 243.446 643.69 243.353 643.634 243.27Z" fill="#464A5F"/>
<path d="M645.546 257.409L643.664 254.728C643.552 254.574 643.385 254.469 643.197 254.434C643.01 254.399 642.816 254.437 642.656 254.541L639.87 256.401C639.714 256.511 639.605 256.677 639.568 256.865C639.53 257.052 639.566 257.247 639.668 257.409L641.394 260.06C641.5 260.218 641.663 260.33 641.849 260.371C642.036 260.413 642.231 260.382 642.394 260.284L645.337 258.432C645.499 258.323 645.611 258.154 645.65 257.963C645.689 257.772 645.652 257.573 645.546 257.409Z" fill="#464A5F"/>
<path d="M640.229 261.091L638.346 258.41C638.234 258.256 638.067 258.151 637.879 258.116C637.692 258.081 637.498 258.12 637.338 258.223L634.552 260.135C634.395 260.244 634.285 260.41 634.246 260.597C634.207 260.785 634.242 260.981 634.343 261.143L636.068 263.795C636.175 263.955 636.34 264.068 636.528 264.109C636.715 264.151 636.912 264.119 637.077 264.019L640.019 262.174C640.108 262.12 640.184 262.048 640.243 261.963C640.302 261.877 640.343 261.781 640.363 261.679C640.382 261.577 640.381 261.472 640.358 261.371C640.334 261.27 640.29 261.174 640.229 261.091Z" fill="#464A5F"/>
<path d="M635.142 265.109L632.804 261.778C632.78 261.741 632.748 261.709 632.711 261.685C632.673 261.66 632.632 261.643 632.588 261.635C632.544 261.627 632.499 261.627 632.456 261.636C632.412 261.645 632.371 261.663 632.334 261.689L628.943 263.997C628.905 264.021 628.873 264.052 628.848 264.089C628.822 264.126 628.805 264.168 628.796 264.211C628.786 264.255 628.786 264.3 628.795 264.344C628.804 264.388 628.821 264.43 628.846 264.467L630.99 267.761C631.013 267.799 631.044 267.832 631.081 267.858C631.117 267.884 631.159 267.903 631.203 267.913C631.247 267.922 631.292 267.923 631.336 267.915C631.38 267.907 631.422 267.89 631.46 267.865L635.075 265.625C635.115 265.597 635.149 265.561 635.175 265.519C635.2 265.477 635.216 265.43 635.223 265.382C635.229 265.333 635.225 265.284 635.211 265.237C635.197 265.19 635.174 265.147 635.142 265.109Z" fill="#464A5F"/>
<path d="M630.437 268.351L628.099 265.012C628.045 264.94 627.966 264.891 627.877 264.875C627.788 264.86 627.696 264.88 627.621 264.93L624.2 267.231C624.127 267.283 624.076 267.362 624.058 267.45C624.04 267.539 624.056 267.631 624.103 267.709L626.254 271.002C626.303 271.078 626.38 271.131 626.468 271.151C626.556 271.171 626.648 271.155 626.725 271.107L630.332 268.866C630.377 268.843 630.417 268.81 630.447 268.77C630.478 268.73 630.499 268.683 630.509 268.634C630.519 268.584 630.518 268.533 630.505 268.484C630.493 268.435 630.469 268.39 630.437 268.351Z" fill="#464A5F"/>
<path d="M625.156 272.026L622.818 268.687C622.766 268.615 622.688 268.566 622.6 268.551C622.512 268.535 622.422 268.555 622.348 268.605L618.927 270.905C618.852 270.957 618.8 271.035 618.782 271.125C618.764 271.214 618.781 271.307 618.83 271.383L620.974 274.677C621.024 274.751 621.101 274.803 621.188 274.823C621.276 274.842 621.367 274.828 621.444 274.782L625.059 272.541C625.105 272.518 625.144 272.486 625.175 272.445C625.206 272.404 625.227 272.357 625.236 272.307C625.245 272.258 625.243 272.206 625.229 272.157C625.215 272.108 625.19 272.063 625.156 272.026Z" fill="#464A5F"/>
<path d="M620.055 275.558L617.74 272.227C617.715 272.19 617.683 272.158 617.646 272.134C617.609 272.109 617.567 272.092 617.523 272.084C617.479 272.076 617.434 272.076 617.391 272.085C617.347 272.095 617.306 272.112 617.269 272.138L613.848 274.446C613.774 274.496 613.722 274.573 613.704 274.661C613.686 274.749 613.703 274.841 613.751 274.916L615.895 278.21C615.944 278.286 616.021 278.339 616.109 278.359C616.197 278.378 616.289 278.362 616.365 278.314L619.98 276.074C620.023 276.048 620.06 276.013 620.087 275.972C620.115 275.93 620.133 275.883 620.14 275.834C620.147 275.784 620.143 275.734 620.128 275.687C620.114 275.639 620.089 275.595 620.055 275.558Z" fill="#464A5F"/>
<path d="M652.687 244.988L650.812 242.299C650.699 242.143 650.531 242.037 650.342 242.002C650.152 241.967 649.957 242.007 649.796 242.113L647.01 243.995C646.854 244.105 646.746 244.271 646.708 244.459C646.671 244.646 646.707 244.841 646.809 245.003L648.534 247.655C648.642 247.813 648.807 247.924 648.995 247.965C649.183 248.005 649.379 247.972 649.542 247.871L652.478 246.026C652.56 245.972 652.63 245.902 652.685 245.82C652.74 245.739 652.779 245.647 652.798 245.551C652.817 245.454 652.818 245.355 652.798 245.258C652.779 245.162 652.741 245.07 652.687 244.988Z" fill="#464A5F"/>
<path d="M647.369 248.67L645.487 245.989C645.375 245.834 645.209 245.727 645.021 245.691C644.834 245.655 644.639 245.692 644.478 245.795L641.692 247.677C641.536 247.787 641.428 247.953 641.39 248.141C641.353 248.328 641.389 248.523 641.491 248.685L643.216 251.337C643.323 251.495 643.486 251.606 643.672 251.648C643.858 251.689 644.053 251.658 644.217 251.561L647.16 249.708C647.242 249.654 647.312 249.584 647.367 249.503C647.422 249.421 647.461 249.329 647.48 249.233C647.5 249.136 647.5 249.037 647.481 248.94C647.462 248.844 647.424 248.752 647.369 248.67Z" fill="#464A5F"/>
<path d="M642.051 252.352L640.146 249.679C640.034 249.523 639.865 249.416 639.676 249.381C639.487 249.347 639.291 249.386 639.131 249.492L636.412 251.359C636.254 251.468 636.145 251.634 636.106 251.821C636.067 252.009 636.102 252.205 636.203 252.367L637.928 255.019C638.035 255.179 638.199 255.292 638.387 255.333C638.575 255.375 638.772 255.343 638.936 255.243L641.879 253.398C641.959 253.341 642.027 253.268 642.08 253.185C642.132 253.101 642.167 253.008 642.183 252.911C642.199 252.814 642.195 252.714 642.173 252.619C642.15 252.523 642.109 252.432 642.051 252.352Z" fill="#464A5F"/>
<path d="M636.726 256.035L634.843 253.353C634.731 253.199 634.564 253.094 634.376 253.06C634.189 253.025 633.995 253.063 633.835 253.167L631.049 255.041C630.893 255.152 630.785 255.318 630.747 255.505C630.71 255.693 630.746 255.888 630.848 256.05L632.573 258.701C632.68 258.859 632.843 258.97 633.029 259.012C633.215 259.054 633.41 259.023 633.574 258.925L636.517 257.08C636.6 257.026 636.671 256.956 636.727 256.873C636.782 256.791 636.821 256.699 636.841 256.601C636.86 256.504 636.86 256.404 636.84 256.306C636.82 256.209 636.781 256.117 636.726 256.035Z" fill="#464A5F"/>
<path d="M631.647 260.053L629.309 256.722C629.283 256.684 629.251 256.653 629.213 256.628C629.175 256.603 629.133 256.586 629.088 256.578C629.044 256.57 628.998 256.57 628.954 256.579C628.91 256.589 628.868 256.607 628.831 256.632L625.41 258.94C625.336 258.99 625.284 259.068 625.266 259.156C625.247 259.243 625.265 259.335 625.313 259.411L627.457 262.712C627.482 262.75 627.514 262.782 627.551 262.808C627.589 262.833 627.631 262.851 627.675 262.86C627.72 262.869 627.766 262.869 627.81 262.86C627.855 262.852 627.897 262.834 627.935 262.809L631.542 260.568C631.586 260.544 631.624 260.511 631.654 260.471C631.684 260.43 631.704 260.384 631.714 260.335C631.724 260.286 631.723 260.235 631.712 260.186C631.7 260.138 631.678 260.092 631.647 260.053Z" fill="#464A5F"/>
<path d="M626.934 263.317L624.596 259.986C624.571 259.949 624.539 259.917 624.502 259.892C624.465 259.868 624.423 259.851 624.38 259.842C624.336 259.834 624.291 259.834 624.247 259.844C624.203 259.853 624.162 259.871 624.125 259.896L620.727 262.197C620.652 262.248 620.6 262.327 620.582 262.416C620.564 262.505 620.581 262.598 620.63 262.675L622.774 265.968C622.824 266.043 622.901 266.095 622.988 266.114C623.076 266.134 623.167 266.119 623.244 266.073L626.859 263.832C626.901 263.806 626.936 263.77 626.963 263.729C626.99 263.687 627.008 263.641 627.015 263.592C627.022 263.543 627.018 263.493 627.004 263.445C626.99 263.398 626.966 263.354 626.934 263.317Z" fill="#464A5F"/>
<path d="M621.661 266.969L619.323 263.631C619.269 263.558 619.19 263.509 619.1 263.494C619.011 263.478 618.92 263.498 618.845 263.548L615.432 265.849C615.357 265.9 615.305 265.979 615.287 266.068C615.268 266.157 615.286 266.25 615.335 266.327L617.478 269.621C617.527 269.696 617.604 269.75 617.692 269.769C617.78 269.789 617.872 269.773 617.949 269.725L621.564 267.484C621.607 267.46 621.645 267.426 621.674 267.385C621.703 267.345 621.722 267.298 621.732 267.249C621.741 267.2 621.739 267.15 621.727 267.101C621.715 267.053 621.692 267.008 621.661 266.969Z" fill="#464A5F"/>
<path d="M616.552 270.502L614.214 267.171C614.189 267.134 614.156 267.102 614.118 267.077C614.081 267.052 614.038 267.035 613.994 267.027C613.949 267.019 613.904 267.019 613.86 267.028C613.815 267.038 613.773 267.056 613.736 267.081L610.323 269.389C610.285 269.413 610.253 269.445 610.227 269.482C610.202 269.519 610.184 269.56 610.175 269.604C610.166 269.648 610.166 269.693 610.175 269.737C610.183 269.781 610.201 269.822 610.226 269.86L612.369 273.161C612.394 273.199 612.425 273.231 612.462 273.256C612.499 273.282 612.54 273.299 612.584 273.308C612.628 273.317 612.673 273.318 612.717 273.309C612.761 273.3 612.803 273.283 612.84 273.258L616.455 271.017C616.497 270.992 616.534 270.958 616.562 270.917C616.591 270.876 616.61 270.83 616.619 270.781C616.628 270.733 616.627 270.683 616.615 270.634C616.604 270.586 616.582 270.541 616.552 270.502Z" fill="#464A5F"/>
<path d="M614.946 279.099L612.609 275.76C612.555 275.687 612.475 275.638 612.386 275.623C612.297 275.608 612.205 275.627 612.131 275.678L608.71 277.978C608.635 278.03 608.583 278.109 608.565 278.198C608.547 278.287 608.564 278.38 608.613 278.456L610.756 281.75C610.807 281.824 610.883 281.877 610.971 281.896C611.058 281.915 611.15 281.901 611.227 281.855L614.842 279.614C614.887 279.591 614.926 279.558 614.957 279.518C614.987 279.478 615.008 279.431 615.018 279.382C615.028 279.332 615.027 279.281 615.015 279.232C615.002 279.183 614.979 279.137 614.946 279.099Z" fill="#464A5F"/>
<path d="M609.837 282.631L607.5 279.3C607.474 279.263 607.442 279.231 607.404 279.206C607.366 279.182 607.324 279.165 607.279 279.156C607.235 279.148 607.189 279.149 607.145 279.158C607.101 279.167 607.059 279.185 607.022 279.211L603.601 281.519C603.526 281.569 603.475 281.646 603.456 281.734C603.438 281.822 603.455 281.914 603.504 281.989L605.647 285.283C605.672 285.321 605.703 285.355 605.741 285.381C605.778 285.407 605.82 285.425 605.865 285.435C605.909 285.445 605.955 285.446 606 285.438C606.045 285.429 606.087 285.412 606.125 285.388L609.733 283.147C609.778 283.124 609.817 283.091 609.848 283.051C609.878 283.011 609.899 282.964 609.909 282.914C609.919 282.865 609.918 282.814 609.906 282.765C609.893 282.716 609.87 282.67 609.837 282.631Z" fill="#464A5F"/>
<path d="M617.852 261.472L615.648 258.328C615.578 258.23 615.472 258.164 615.354 258.143C615.235 258.122 615.113 258.148 615.013 258.216L611.764 260.389C611.665 260.457 611.595 260.562 611.572 260.681C611.548 260.799 611.572 260.922 611.638 261.024L613.654 264.131C613.721 264.232 613.825 264.303 613.944 264.328C614.063 264.353 614.187 264.331 614.289 264.265L617.695 262.122C617.75 262.091 617.797 262.05 617.835 262C617.873 261.95 617.9 261.892 617.915 261.831C617.93 261.77 617.932 261.707 617.921 261.645C617.91 261.583 617.886 261.524 617.852 261.472Z" fill="#464A5F"/>
<path d="M612.743 265.005L610.54 261.868C610.506 261.818 610.463 261.776 610.412 261.743C610.362 261.71 610.306 261.687 610.247 261.676C610.188 261.665 610.127 261.666 610.069 261.678C610.01 261.69 609.954 261.714 609.905 261.748L606.678 263.929C606.579 263.996 606.51 264.1 606.486 264.217C606.462 264.334 606.486 264.456 606.551 264.557L608.568 267.664C608.635 267.765 608.738 267.836 608.857 267.862C608.975 267.889 609.099 267.868 609.203 267.806L612.616 265.662C612.668 265.628 612.712 265.583 612.747 265.531C612.781 265.479 612.805 265.421 612.817 265.36C612.828 265.299 612.828 265.236 612.815 265.175C612.803 265.114 612.778 265.056 612.743 265.005Z" fill="#464A5F"/>
<path d="M607.634 268.545L605.393 265.401C605.324 265.304 605.22 265.238 605.103 265.217C604.985 265.196 604.865 265.222 604.766 265.289L601.532 267.462C601.432 267.53 601.363 267.635 601.339 267.754C601.315 267.872 601.339 267.996 601.405 268.097L603.422 271.204C603.489 271.305 603.593 271.376 603.712 271.401C603.83 271.426 603.954 271.404 604.057 271.338L607.47 269.195C607.525 269.165 607.574 269.124 607.612 269.074C607.651 269.024 607.679 268.967 607.694 268.906C607.71 268.845 607.713 268.781 607.702 268.719C607.692 268.657 607.669 268.598 607.634 268.545Z" fill="#464A5F"/>
<path d="M602.6 272.182L600.262 268.844C600.209 268.771 600.129 268.722 600.04 268.707C599.951 268.692 599.859 268.711 599.784 268.762L596.364 271.062C596.29 271.115 596.239 271.194 596.223 271.283C596.206 271.372 596.224 271.464 596.274 271.54L598.418 274.834C598.467 274.91 598.543 274.963 598.631 274.983C598.719 275.002 598.812 274.986 598.888 274.938L602.503 272.698C602.546 272.673 602.584 272.639 602.613 272.599C602.642 272.558 602.662 272.512 602.671 272.463C602.68 272.414 602.679 272.363 602.666 272.315C602.654 272.266 602.632 272.221 602.6 272.182Z" fill="#464A5F"/>
<path d="M663.054 237.728L661.059 234.845C660.946 234.691 660.777 234.586 660.587 234.552C660.398 234.519 660.203 234.56 660.044 234.666L652.097 240.201C651.944 240.312 651.838 240.477 651.802 240.663C651.766 240.848 651.802 241.041 651.902 241.201L653.814 244.144C653.869 244.226 653.94 244.296 654.022 244.35C654.104 244.404 654.195 244.442 654.292 244.46C654.388 244.479 654.487 244.479 654.584 244.459C654.68 244.439 654.771 244.401 654.853 244.346L662.867 238.737C663.021 238.624 663.126 238.457 663.161 238.27C663.195 238.082 663.157 237.888 663.054 237.728Z" fill="#464A5F"/>
<path d="M611.428 273.93L608.949 270.427C608.923 270.39 608.891 270.358 608.852 270.333C608.814 270.309 608.772 270.292 608.727 270.284C608.682 270.277 608.637 270.278 608.593 270.288C608.549 270.299 608.507 270.318 608.471 270.345L599.941 276.32C599.868 276.372 599.817 276.449 599.801 276.537C599.784 276.625 599.802 276.716 599.851 276.791L602.189 280.391C602.214 280.43 602.247 280.463 602.285 280.489C602.323 280.515 602.366 280.534 602.411 280.543C602.457 280.552 602.503 280.552 602.549 280.542C602.594 280.533 602.637 280.514 602.675 280.488L611.346 274.416C611.421 274.362 611.471 274.281 611.487 274.19C611.502 274.099 611.481 274.006 611.428 273.93Z" fill="#464A5F"/>
<path d="M638.563 247.139L636.322 243.815C636.271 243.741 636.192 243.688 636.103 243.67C636.014 243.652 635.921 243.669 635.844 243.718L616.911 256.49C616.873 256.514 616.84 256.546 616.815 256.583C616.79 256.62 616.772 256.661 616.763 256.705C616.754 256.749 616.754 256.794 616.762 256.838C616.771 256.882 616.788 256.924 616.813 256.961L619.144 260.546C619.169 260.585 619.201 260.618 619.239 260.644C619.277 260.671 619.321 260.689 619.366 260.698C619.411 260.707 619.458 260.707 619.503 260.697C619.548 260.688 619.591 260.669 619.629 260.643L638.511 247.617C638.58 247.56 638.625 247.478 638.634 247.389C638.644 247.299 638.619 247.21 638.563 247.139Z" fill="#464A5F"/>
<path opacity="0.1" d="M638.653 235.727L628.585 221.095C628.306 220.688 627.878 220.408 627.394 220.316C626.91 220.224 626.409 220.327 626 220.602L598.268 239.222C598.064 239.36 597.889 239.537 597.753 239.743C597.617 239.949 597.524 240.18 597.477 240.422C597.431 240.664 597.432 240.913 597.482 241.154C597.532 241.396 597.629 241.625 597.768 241.829L608.03 256.879C608.168 257.083 608.345 257.258 608.551 257.394C608.757 257.529 608.988 257.623 609.231 257.669C609.473 257.714 609.722 257.712 609.963 257.661C610.205 257.61 610.434 257.512 610.637 257.372L638.175 238.318C638.377 238.18 638.549 238.003 638.683 237.798C638.816 237.592 638.907 237.363 638.952 237.122C638.996 236.881 638.993 236.634 638.941 236.394C638.89 236.155 638.792 235.928 638.653 235.727Z" fill="black"/>
<path d="M639.116 235.816L629.048 221.185C628.768 220.78 628.34 220.501 627.856 220.409C627.373 220.317 626.873 220.418 626.463 220.692L598.769 239.327C598.563 239.464 598.387 239.64 598.25 239.845C598.112 240.051 598.018 240.282 597.97 240.524C597.923 240.766 597.924 241.016 597.974 241.258C598.024 241.5 598.121 241.729 598.261 241.933L608.493 256.968C608.631 257.173 608.808 257.348 609.014 257.483C609.22 257.619 609.451 257.712 609.694 257.758C609.936 257.804 610.185 257.801 610.426 257.75C610.668 257.699 610.897 257.601 611.1 257.461L638.653 238.408C638.853 238.268 639.025 238.091 639.157 237.885C639.289 237.679 639.379 237.449 639.422 237.208C639.465 236.967 639.46 236.721 639.407 236.482C639.355 236.243 639.256 236.017 639.116 235.816Z" fill="#939498"/>
<path d="M701.548 259.463L680.187 252.338L611.675 299.929L632.879 306.838C633.451 307.025 634.058 307.076 634.653 306.988C635.248 306.9 635.814 306.675 636.307 306.33L701.743 260.83C701.87 260.755 701.972 260.643 702.036 260.51C702.1 260.377 702.123 260.228 702.102 260.081C702.082 259.935 702.018 259.798 701.919 259.688C701.821 259.578 701.692 259.5 701.548 259.463Z" fill="#6C63FF"/>
<path d="M431.271 60.3489C434.408 62.3267 437.105 65.0042 440.442 66.6118C443.779 68.2195 448.211 68.4918 450.845 65.8816C451.469 65.108 452.165 64.3959 452.925 63.7552C454.246 62.8753 455.998 63.0112 457.554 63.3495C459.567 63.777 461.512 64.478 463.335 65.4329C465.172 66.3865 467.058 67.6345 469.109 67.3761C472.737 66.932 474.064 62.4473 474.575 58.8313L482.844 63.5309C483.499 63.9036 484.257 64.2786 484.934 63.9663C485.199 63.7967 485.428 63.5754 485.606 63.3157C485.785 63.056 485.909 62.7631 485.972 62.4544C486.958 59.5329 487.763 56.4408 487.262 53.3868C486.761 50.3329 484.712 47.372 481.709 46.6838C478.226 45.8877 474.253 48.2002 471.163 46.4031C468.771 45.0124 468.175 41.8717 466.894 39.4427C464.535 35.0313 459.18 32.6545 454.196 33.3182C449.211 33.9818 444.879 37.4301 442.539 41.8471C441.239 44.2932 440.464 47.0749 438.597 49.1114C437.95 49.8207 437.147 50.3706 436.251 50.7182C435.356 51.0657 434.392 51.2015 433.436 51.1149" fill="#444053"/>
</svg>
